<?xml version="1.0" encoding="UTF-8"?>
<svg id="Layer_1" data-name="Layer 1" xmlns="http://www.w3.org/2000/svg" version="1.1" viewBox="0 0 1920 544.82">
  <defs>
    <style>
      .cls-1 {
        fill: #533219;
      }

      .cls-1, .cls-2, .cls-3, .cls-4 {
        stroke-width: 0px;
      }

      .cls-2 {
        fill: #fff4ac;
      }

      .cls-3 {
        fill: #ffc800;
      }

      .cls-4 {
        fill: #674019;
      }
    </style>
  </defs>
  <g>
    <path class="cls-3" d="M142.31-625.74l-41.04,29.07c-3.42-7.7-8.55-18.81-8.55-27.65,0-35.91,62.42-75.81,92.06-88.07,26.22-10.83,60.99-20.81,89.21-20.81,32.49,0,58.71,14.82,58.71,50.45,0,41.33-39.33,80.94-70.11,104.31-22.23,17.1-44.18,33.34-73.53,33.34-6.27,0-12.25-.85-18.24-2-10.54,22.8-22.8,44.75-33.06,67.83-19.38,13.68-42.75,20.24-65.55,25.94,23.94-57.29,46.17-115.14,70.11-172.43ZM213.85-594.39c8.55,0,15.96-2.56,23.08-7.41,20.81-14.25,24.23-20.23,28.5-44.75.57-3.99,1.14-7.7,1.14-11.69,0-15.96-8.27-27.08-23.66-31.07-18.53,29.07-35.91,59.28-50.73,90.35,6.84,2.85,14.25,4.56,21.66,4.56Z"/>
    <path class="cls-3" d="M260.3-529.98c0-39.05,41.9-98.9,83.79-98.9,3.42,0,7.12.29,10.54,1.14l1.43-2,56.71-5.7c-11.4,17.96-21.38,37.05-29.92,56.43,5.42-7.7,10.83-15.67,16.53-23.08l22.51,20.23c-14.82,21.95-51.58,80.37-79.8,80.37-6.84,0-12.25-3.99-15.67-9.69-9.98,7.41-21.95,12.83-34.77,12.83-19.95,0-31.35-11.69-31.35-31.64ZM321.29-549.64c1.42-8.27,3.99-16.53,6.55-24.51-5.13,8.27-10.83,19.67-12.25,29.36,2.28-1.42,3.99-2.85,5.7-4.84Z"/>
    <path class="cls-3" d="M369.17-529.98c0-38.19,34.77-103.17,78.09-103.17,2.85,0,5.99.28,8.83.85,10.83-22.52,20.52-45.32,32.49-67.26l60.99-8.26c-24.23,40.47-53.3,92.34-67.55,137.09,7.7-10.54,15.11-20.8,23.09-31.07l22.23,19.95c-14.82,21.38-51.87,80.37-79.23,80.37-6.27,0-10.83-4.84-13.97-9.69-9.69,8.55-21.66,15.1-34.77,15.1-21.09,0-30.21-14.25-30.21-33.92ZM427.31-550.5c1.42-11.4,3.99-22.51,7.41-33.34-5.7,10.26-11.4,27.08-12.25,38.76,2-1.42,3.42-3.42,4.84-5.42Z"/>
    <path class="cls-3" d="M492-518.86c0-11.4,13.68-36.77,19.38-47.03l-3.13,1.71-21.95-8.83c3.99-8.27,9.12-16.53,9.12-25.94,0-12.83,2.85-25.94,11.97-35.63,5.99-6.55,15.11-12.54,24.23-12.54,11.4,0,17.39,9.12,16.82,19.67,10.26-2.85,20.24-7.41,29.92-12.26.86,7.98,2.28,16.25,2.28,24.23,0,5.42-.57,10.54-1.42,15.67l3.71-3.99,18.81,23.94c-17.96,23.09-58.14,80.37-89.21,80.37-11.69,0-20.52-7.41-20.52-19.38Z"/>
    <path class="cls-3" d="M551.56-538.81c0-7.7.85-15.39,2.56-22.8,7.13-33.06,46.46-78.66,82.65-78.66,20.24,0,36.2,13.11,34.2,34.49l8.27-10.83,8.83,38.76c-16.53,27.36-63.56,79.52-97.47,79.52-23.94,0-39.04-17.1-39.04-40.47Z"/>
    <path class="cls-3" d="M633.07-537.39l42.75-23.94-.57-5.42-21.38-14.82c6.27-8.26,11.97-16.25,17.1-25.08,1.43-15.67,3.14-28.79,15.68-39.9,6.27-5.7,14.82-9.98,23.66-9.98,10.54,0,19.09,6.84,19.09,17.67,0,9.41-4.56,14.82-8.55,22.51,0,19.95,9.12,38.76,9.12,59,0,29.07-34.77,57.86-62.7,57.86-22.8,0-31.35-17.67-34.2-37.91Z"/>
    <path class="cls-3" d="M798.37-502.62c17.67-38.76,35.06-77.52,52.16-116.57l-47.31,41.9c-3.71-8.55-9.98-21.09-9.98-30.78,0-37.91,50.16-77.52,82.08-90.92,25.94-10.83,61.56-21.09,89.78-21.09,32.49,0,58.14,14.82,58.14,50.45,0,42.75-43.32,97.47-72.68,126.54-29.36,29.36-54.72,50.45-96.62,58.43-6.84,1.14-13.68,2.28-20.52,2.28-15.67,0-26.79-6.84-35.06-20.24ZM855.37-630.3l12.83-29.93c-7.41,5.42-15.96,13.4-15.96,23.37,0,1.14,2.56,5.7,3.13,6.55ZM919.21-563.04c22.52-21.66,31.92-39.33,37.05-70.11.57-3.99,1.14-7.7,1.14-11.69,0-13.4-5.7-23.94-18.24-29.36l-67.26,135.66c17.67-1.42,34.77-12.54,47.31-24.51Z"/>
    <path class="cls-3" d="M957.11-529.98c0-39.05,41.9-98.9,83.79-98.9,3.42,0,7.12.29,10.54,1.14l1.43-2,56.71-5.7c-11.4,17.96-21.38,37.05-29.92,56.43,5.42-7.7,10.83-15.67,16.53-23.08l22.51,20.23c-14.82,21.95-51.58,80.37-79.8,80.37-6.84,0-12.25-3.99-15.67-9.69-9.98,7.41-21.95,12.83-34.77,12.83-19.95,0-31.35-11.69-31.35-31.64ZM1018.11-549.64c1.42-8.27,3.99-16.53,6.55-24.51-5.13,8.27-10.83,19.67-12.25,29.36,2.28-1.42,3.99-2.85,5.7-4.84Z"/>
    <path class="cls-3" d="M1065.98-534.25c0-28.5,23.08-63.84,37.91-87.5,3.42-1.42,6.84-2.56,10.26-3.71-3.14-3.71-4.56-8.83-4.56-13.68,0-18.24,19.95-39.05,38.48-39.05,11.97,0,20.24,8.27,20.24,20.24,0,8.55-4.28,16.82-9.69,23.37l2.57-.57c-7.7,15.67-15.67,31.07-23.94,46.46l9.41-13.39,23.66,18.24c-12.25,18.81-57,81.8-80.09,81.8-15.96,0-24.23-18.24-24.23-32.21Z"/>
    <path class="cls-3" d="M1115.29-526.56c0-10.83,2.28-21.38,4.84-31.92,7.7-31.07,57.29-145.07,92.91-145.07,13.68,0,20.52,10.54,20.52,23.09,0,30.21-36.2,92.06-54.44,117.14,11.4-13.11,21.38-27.93,31.64-42.18l20.23,23.66c-14.25,21.09-68.69,83.22-94.62,83.22-15.1,0-21.09-15.11-21.09-27.93Z"/>
    <path class="cls-3" d="M852.79-460.44c48.74-45.32,144.5-53.87,208.62-53.87,44.18,0,88.07,2.85,131.96,5.13-9.69-4.56-14.82-14.54-14.82-26.51,0-25.94,20.81-66.12,35.34-87.5,19.09-6.55,39.05-8.26,59.28-9.69l-1.71,2.85c18.53-5.13,32.78-6.27,52.16-6.27-12.83,23.66-24.51,47.6-35.34,72.39,9.69-1.43,19.67-.86,29.07.28,20.24,2.28,38.19,13.97,38.19,37.91,0,5.13-1.14,9.97-2.85,14.82-15.68,42.18-75.24,55.86-124.26,59.85-.86,1.14-1.42,2-2.28,2.85-7.41,8.83-17.38,13.97-29.07,13.97s-20.8-5.42-27.93-13.68l-.57-1.71c-31.92-.57-63.84-2.85-96.05-2.85-40.47,0-92.34.85-126.83,23.94-21.95-27.08-60.71-30.21-92.91-31.92ZM1275.45-506.61c13.97,0,44.75-.57,44.75-20.8,0-1.71-2.28-2.57-5.42-2.85-16.82.57-30.78,3.42-47.31,11.4l-5.99,12.25h13.96Z"/>
  </g>
  <g>
    <path class="cls-2" d="M173.66-679.89c17.96-5.98,36.77-11.4,62.42-12.25-22.8,35.34-38.76,65.55-53.3,96.33,9.41,5.42,20.24,8.55,31.07,8.55,9.97,0,19.09-2.85,27.08-8.55,22.8-16.25,26.79-22.8,31.35-49.59.85-4.27,1.42-8.55,1.42-12.83,0-26.5-19.38-39.9-45.6-39.9-11.69,0-23.66,2.85-34.49,7.7-5.13,2.28-12.54,5.99-19.95,10.54-11.69,7.41-22.52,17.1-22.52,27.65,0,1.71.57,3.71,3.71,8.83l-50.45,35.91c-3.71-8.55-4.56-12.83-4.56-16.82,0-35.63,61.85-70.97,87.5-81.51,24.8-10.26,59.28-20.23,86.64-20.23s51.59,10.54,51.59,43.32c0,39.04-39.9,78.09-67.26,98.61-10.26,7.7-20.23,15.67-31.35,21.66s-23.66,10.26-37.91,10.26c-7.69,0-15.1-1.14-22.23-3.13-10.55,23.94-23.66,46.46-34.77,71.54-11.69,7.98-26.79,14.82-47.6,20.24,32.21-76.67,57.57-146.78,89.21-216.32Z"/>
    <path class="cls-2" d="M267.42-529.98c0-33.92,37.91-91.77,76.67-91.77,4.56,0,9.12.57,13.4,2.28l2.56-3.42,39.05-3.99c-13.68,21.66-33.92,65.55-33.92,80.09,0,.57-1.71,1.42-.85,1.42,3.42,0,9.12-8.83,15.67-17.67,7.41-10.26,14.82-21.09,20.52-28.5l11.97,10.83c-6.56,9.97-17.67,26.5-30.21,41.9-11.97,14.54-27.08,30.21-40.19,30.21-7.41,0-11.4-7.12-13.4-13.96-9.97,9.12-22.8,17.1-37.05,17.1-16.25,0-24.23-8.55-24.23-24.51ZM311.32-536.25c5.13,0,11.97-5.13,16.82-10.26,2.56-16.82,11.12-40.76,19.67-56.72-15.67.57-39.62,44.75-39.62,61.85,0,3.99,1.42,5.13,3.13,5.13Z"/>
    <path class="cls-2" d="M376.29-529.98c0-32.21,30.78-96.05,70.97-96.05,4.28,0,8.55.85,12.54,2.28,11.12-22.23,20.24-45.6,33.35-69.26l42.75-5.7c-21.95,36.48-65.27,119.42-65.27,149.63,0,.85-2.28,3.99-.57,3.99,2.85,0,8.83-9.12,15.39-17.96,7.7-10.26,15.11-21.66,20.52-28.5l11.97,10.83c-7.7,11.4-19.1,28.21-31.35,43.04-11.69,14.25-26.22,29.07-38.48,29.07-6.56,0-10.26-7.41-12.25-14.25-9.12,9.69-21.95,19.67-36.48,19.67-18.24,0-23.09-12.54-23.09-26.79ZM418.47-536.25c5.7,0,11.97-7.13,15.67-11.69,2-19.1,8.84-41.04,16.82-58.71-15.96,2.57-35.62,45.89-35.62,63.27,0,2.85-.29,7.13,3.13,7.13Z"/>
    <path class="cls-2" d="M499.12-518.86c0-10.54,17.38-43.04,28.79-60.14-1.42.29-2.85.85-4.28,1.14-4.84,1.14-9.4,2.57-15.67,5.7l-11.69-4.56c5.42-11.4,6.27-14.25,6.27-22.23,0-9.98,2-22.23,9.98-30.5,3.7-3.71,11.4-10.55,19.09-10.55s9.69,6.27,9.69,10.83c0,3.71-.57,6.56-1.14,9.12-.29.57,0,1.43-.29,2,9.12-1.14,21.09-4.84,32.49-10.54.85,8.55,1.14,10.83,1.14,13.11,0,6.27-.85,13.11-2.57,20.81-14.82,12.54-27.08,30.5-27.93,48.17,3.99-2.85,9.97-9.97,15.96-17.38,8.83-10.55,17.38-21.95,23.66-28.79l9.98,12.83c-8.84,11.4-21.66,28.79-35.63,43.89-13.68,14.82-30.21,29.36-44.46,29.36-6.56,0-13.4-3.42-13.4-12.25Z"/>
    <path class="cls-2" d="M558.69-538.81c0-7.12.86-14.25,2.28-21.38,6.27-28.79,42.46-72.96,75.81-72.96,13.11,0,27.36,7.41,27.36,23.94,0,7.69-2.85,14.82-5.99,20.8-12.54,24.23-33.06,38.19-60.42,37.34-.57,2-.86,3.71-.86,5.42,0,6.27,3.71,9.97,9.98,9.97,17.96,0,39.9-26.22,50.73-39.9,4.84-6.27,9.12-12.25,17.96-24.23l4.84,20.81c-14.54,23.66-59.57,73.53-89.78,73.53-20.52,0-31.92-14.25-31.92-33.35ZM632.5-603.22c0-.85.28-2.28-.86-2.28-9.69,0-21.66,22.8-27.08,35.63,14.25-2.85,27.93-18.81,27.93-33.35Z"/>
    <path class="cls-2" d="M640.76-533.4l31.07-17.39c2,7.41,2.85,11.97,4.28,16.25.85,2.28.57,5.13,2.28,5.13,5.13,0,5.7-8.55,5.7-12.54,0-12.26-1.42-24.8-2.85-37.05-.57.57-1.14,1.14-3.99,4.84l-13.4-9.12c4.85-6.27,6.84-9.12,8.84-12.25l5.13-8.83c.57-6.27,1.42-12.54,2.85-18.53,1.71-6.55,4.85-12.83,10.83-18.24,4.56-3.99,11.4-8.26,18.81-8.26,4.84,0,11.97,2.56,11.97,10.54,0,5.98-2.56,10.83-4.84,14.54l-2.85,4.56c-.57,1.42-.86,2.28-.86,2.85,0,9.69,2.28,19.38,4.56,29.36,2.28,9.97,4.56,19.95,4.56,30.21,0,25.37-32.21,50.73-55.58,50.73-15.39,0-24.23-9.41-26.51-26.79Z"/>
    <path class="cls-2" d="M806.35-503.19c25.94-57.29,51.3-112.58,75.24-170.72l49.02-10.26c-3.71-.57-7.7-.86-11.69-.86-11.68,0-23.66,2.85-34.49,7.7-16.25,7.41-39.33,23.66-39.33,40.47,0,2.28.57,4.56,3.71,9.69l-43.04,38.19c-4.27-9.69-5.42-14.25-5.42-19.09,0-35.34,50.16-73.25,77.52-84.36,24.79-10.26,59.85-20.52,87.21-20.52s51.02,10.83,51.02,43.32c0,41.04-43.89,95.48-70.4,121.7-28.22,27.93-52.16,48.45-93.2,56.43-6.27,1.14-12.83,2-19.1,2-8.83,0-19.95-2-27.08-13.68ZM868.48-531.4c20.24,0,41.04-12.25,55.86-26.51,24.23-23.37,33.35-41.61,38.76-74.1.86-4.28,1.42-8.55,1.42-12.83,0-20.81-11.68-33.63-29.07-38.19l-74.67,150.77c2.57.57,5.13.86,7.7.86Z"/>
    <path class="cls-2" d="M964.24-529.98c0-33.92,37.91-91.77,76.67-91.77,4.56,0,9.12.57,13.4,2.28l2.56-3.42,39.05-3.99c-13.68,21.66-33.92,65.55-33.92,80.09,0,.57-1.71,1.42-.85,1.42,3.42,0,9.12-8.83,15.67-17.67,7.41-10.26,14.82-21.09,20.52-28.5l11.97,10.83c-6.56,9.97-17.67,26.5-30.21,41.9-11.97,14.54-27.08,30.21-40.19,30.21-7.41,0-11.4-7.12-13.4-13.96-9.97,9.12-22.8,17.1-37.05,17.1-16.25,0-24.23-8.55-24.23-24.51ZM1008.13-536.25c5.13,0,11.97-5.13,16.82-10.26,2.56-16.82,11.12-40.76,19.67-56.72-15.67.57-39.62,44.75-39.62,61.85,0,3.99,1.42,5.13,3.13,5.13Z"/>
    <path class="cls-2" d="M1073.11-534.25c0-13.11,5.7-28.21,12.83-42.46s15.68-27.93,22.8-39.33c6.27-2.56,11.4-3.99,16.53-5.13,5.13-1.14,9.97-2,23.37-4.28-7.7,15.39-15.96,29.64-23.37,44.18-7.41,14.82-13.4,27.93-13.4,34.77-.29,0-.86.29-1.14.57,3.71-.57,10.26-9.12,16.81-17.67,7.7-9.97,15.39-21.09,20.52-28.21l12.54,9.41c-11.97,18.53-50.16,73.25-70.4,73.25-12.54,0-17.1-15.39-17.1-25.08ZM1148.06-671.06c7.98,0,13.11,5.13,13.11,13.11,0,13.97-16.82,32.21-31.35,32.21-8.26,0-13.11-5.42-13.11-13.4,0-14.25,16.82-31.92,31.35-31.92Z"/>
    <path class="cls-2" d="M1122.41-526.56c0-10.26,2.28-20.8,4.56-30.21,6.84-27.93,51.58-139.65,86.07-139.65,10.83,0,13.4,9.41,13.4,15.96,0,28.79-38.19,93.48-55.01,115.43-4.28,5.7-8.55,13.68-8.55,19.67,0,.57-.57,1.71.29,1.71,10.26,0,37.05-35.06,48.17-50.16l10.83,12.54c-12.83,19.1-60.99,75.53-85.79,75.53-11.12,0-13.96-12.25-13.96-20.81ZM1203.07-655.38c-7.41,7.41-18.81,35.34-26.51,56.43,10.83-18.53,23.94-43.89,26.51-56.43Z"/>
    <path class="cls-2" d="M869.89-466.71c41.61-38.76,150.77-40.47,191.52-40.47,59,0,99.18,4.56,151.05,6.55,3.13-5.7,5.98-11.4,8.83-16.53-5.13,2.28-10.26,3.42-15.96,3.42-14.54,0-19.67-11.4-19.67-21.95,0-23.37,19.67-62.13,32.78-81.51,11.4-3.99,22.8-6.27,41.61-7.7-11.97,20.24-35.63,58.43-35.63,73.25,0,3.99,1.42,4.56,2.28,4.56,1.42,0,2.56-.28,3.99-.85,1.42-.57,2.85-1.42,4.56-2.28,3.71-6.27,10.54-21.09,13.4-27.36,6.27-14.25,12.83-28.21,19.67-44.46,7.12-2,12.83-3.42,18.53-4.85s11.4-2.28,24.51-2.28c-15.1,27.65-24.79,51.87-35.05,74.96,11.4-2.85,25.08-5.42,36.48-3.99,20.24,1.99,35.62,13.39,35.62,32.49,0,4.27-.85,8.26-2.28,12.25-15.39,41.33-72.39,53.58-121.98,56.43l-3.42,4.28c-5.99,7.12-13.96,11.4-23.66,11.4-7.7,0-15.67-3.13-21.66-9.97l-1.42-5.42c-3.71,0-7.41-.29-10.54-.29-37.05-1.71-81.51-3.42-121.13-2-39.9,1.42-74.1,6.56-95.19,20.81-15.67-19.38-45.32-26.79-77.24-28.5ZM1251.8-500.05c20.24,0,75.53,2,75.53-27.36,0-5.7-4.85-9.98-13.68-11.4-16.82-.57-35.62,6.84-51.59,14.54-3.42,6.84-7.69,15.39-12.54,24.23h2.28Z"/>
  </g>
  <g>
    <path class="cls-4" d="M176.69-676.47c15.95-5.13,34.47-10.55,51.28-11.12-19.37,29.92-35.89,61.28-50.71,93.48,10.83,6.84,23.65,11.12,36.46,11.12,10.83,0,20.8-3.13,29.63-9.4,23.64-16.82,28.2-24.23,33.05-52.16.85-4.56,1.42-9.12,1.42-13.68,0-29.64-22.22-44.18-49.85-44.18-12.53,0-24.78,2.85-36.18,7.98-14.24,6.56-45.01,23.66-45.01,42.18,0,2.85.85,5.42,2.28,7.7l-43.02,30.5c-1.42-3.13-1.99-6.84-1.99-10.26,0-32.21,58.4-66.69,84.89-77.52,24.78-9.98,58.4-19.95,84.89-19.95s47.29,9.98,47.29,39.05c0,36.77-37.89,74.39-65.52,95.19-20.23,15.39-39.88,31.07-66.66,31.07-8.26,0-16.81-1.42-24.78-3.99-10.54,25.08-24.5,48.74-35.61,73.82-10.26,7.12-25.07,13.68-37.03,16.81,28.77-68.69,54.41-138.8,85.18-206.63Z"/>
    <path class="cls-4" d="M271.55-529.98c0-32.49,37.03-87.5,72.36-87.5,5.13,0,10.26,1.14,14.81,3.42l3.42-4.84,28.49-2.85c-8.83,14.25-29.91,59.28-29.91,74.96,0,1.99.57,5.7,3.42,5.7,7.69,0,31.05-36.76,36.75-44.17l5.7,5.13c-9.12,13.39-43.3,67.26-64.67,67.26-8.55,0-10.26-12.25-10.54-18.53-10.26,10.83-24.21,21.66-39.88,21.66-13.67,0-19.94-6.55-19.94-20.24ZM311.15-531.97c7.41,0,15.95-7.41,20.8-12.54,2.28-17.96,12.82-45.89,22.22-61.56-1.99-.85-3.99-1.42-6.27-1.42-19.66,0-44.16,48.74-44.16,66.12,0,4.56,1.99,9.4,7.41,9.4Z"/>
    <path class="cls-4" d="M380.37-529.98c0-31.63,30.48-91.77,66.66-91.77,5.13,0,9.97,1.14,14.53,3.42,11.97-23.37,21.37-47.88,33.9-70.68l31.91-4.28c-17.09,28.5-61.25,112.58-61.25,144.21,0,2,0,8.26,3.7,8.26,6.84,0,31.34-37.91,36.46-44.46l5.7,5.13c-11.11,16.25-44.44,67.26-64.1,67.26-7.69,0-9.4-13.96-9.69-19.38-9.12,11.4-23.36,24.79-39.03,24.79-14.81,0-18.8-9.41-18.8-22.52ZM418.26-531.97c7.41,0,15.67-8.83,19.94-14.25,1.71-20.8,9.69-44.75,18.8-63.56-1.42-.57-3.13-1.14-4.84-1.14-20.51,0-41.31,50.16-41.31,67.55,0,4.84,1.42,11.4,7.41,11.4Z"/>
    <path class="cls-4" d="M503.15-518.86c0-11.68,26.21-57.86,34.75-66.69-10.54,2.56-20.8,3.99-30.48,8.83l-5.7-2.28c3.7-7.7,4.84-11.12,4.84-19.95,0-9.41,1.99-20.52,8.83-27.65,3.7-3.99,10.26-9.12,15.95-9.12,3.99,0,5.41,2.85,5.41,6.56,0,7.12-1.42,9.69-3.42,15.67h.85c9.97,0,25.64-3.99,34.47-8.55.28,2.28.28,4.27.28,6.55,0,5.99-.57,12.54-1.99,18.53-14.81,12.54-28.49,32.49-28.49,52.73,0,1.14-.28,3.42,1.42,3.42,7.98,0,36.75-39.33,42.16-45.32l4.84,6.27c-13.67,17.38-50.42,68.97-74.64,68.97-5.41,0-9.12-2.28-9.12-7.98Z"/>
    <path class="cls-4" d="M562.69-538.81c0-6.84.85-13.68,2.28-20.52,5.98-27.93,41.02-69.54,71.5-69.54,11.96,0,23.07,6.55,23.07,19.67,0,6.55-2.28,13.11-5.41,18.81-12.25,23.66-32.76,36.77-59.82,34.77-1.14,3.14-1.99,6.56-1.99,9.98,0,8.55,5.7,14.25,14.24,14.25,24.78,0,53.27-40.19,66.66-58.43l2.28,9.98c-13.67,22.23-57.55,70.11-85.18,70.11-17.66,0-27.63-11.97-27.63-29.07ZM599.44-565.32c18.8,0,37.03-19.67,37.03-37.91,0-3.42-1.42-6.55-5.13-6.55-12.54,0-29.91,34.2-33.33,44.46h1.42Z"/>
    <path class="cls-4" d="M645.02-531.12l23.93-13.4c1.14,4.28,3.42,19.38,9.12,19.38,7.12,0,9.97-11.4,9.97-16.82,0-15.96-2.56-32.78-3.99-48.74-2.56,3.71-5.13,7.41-7.98,10.83l-6.27-4.28c4.56-5.7,8.26-12.54,11.97-18.81,1.42-12.83,1.71-25.65,12.25-35.05,4.27-3.71,9.97-7.13,15.95-7.13,3.99,0,7.69,2,7.69,6.27,0,9.41-8.55,15.96-8.55,21.95,0,20.81,9.12,40.47,9.12,59.57,0,22.52-29.63,46.46-51.28,46.46-13.1,0-20.23-7.7-21.94-20.24Z"/>
    <path class="cls-4" d="M810.82-503.47c25.07-55.29,50.42-110.58,73.5-166.73l44.16-9.12-74.07,149.63c4.27,1.71,9.12,2.57,13.67,2.57,21.65,0,43.59-12.83,58.68-27.65,24.78-23.94,34.47-43.04,40.17-76.38.85-4.56,1.42-9.12,1.42-13.68,0-29.92-21.94-44.46-49.85-44.46-12.54,0-24.79,2.85-36.18,7.98-15.95,7.12-41.88,24.51-41.88,44.46,0,3.13.85,6.27,2.56,8.83l-36.18,31.92c-1.71-3.71-2.56-7.98-2.56-11.97,0-32.21,47.57-69.26,74.92-80.37,24.78-10.26,58.97-20.24,85.46-20.24s46.72,9.98,46.72,39.05c0,38.76-42.73,92.06-69.23,118.56-27.92,27.93-50.99,47.6-90.88,55.29-5.98,1.14-12.25,1.99-18.23,1.99-8.54,0-17.38-1.99-22.22-9.69Z"/>
    <path class="cls-4" d="M968.07-529.98c0-32.49,37.03-87.5,72.36-87.5,5.13,0,10.26,1.14,14.81,3.42l3.42-4.84,28.49-2.85c-8.83,14.25-29.91,59.28-29.91,74.96,0,1.99.57,5.7,3.42,5.7,7.69,0,31.05-36.76,36.75-44.17l5.7,5.13c-9.12,13.39-43.3,67.26-64.67,67.26-8.55,0-10.26-12.25-10.54-18.53-10.25,10.83-24.21,21.66-39.88,21.66-13.67,0-19.94-6.55-19.94-20.24ZM1007.67-531.97c7.41,0,15.95-7.41,20.79-12.54,2.28-17.96,12.82-45.89,22.22-61.56-1.99-.85-3.99-1.42-6.27-1.42-19.66,0-44.16,48.74-44.16,66.12,0,4.56,1.99,9.4,7.41,9.4Z"/>
    <path class="cls-4" d="M1076.89-534.25c0-24.23,21.37-58.14,34.19-78.38,9.4-3.71,19.66-5.42,29.34-7.12-7.69,15.39-33.33,57.29-33.33,73.25,0,1.71.28,4.85,2.85,4.85,8.54,0,33.04-36.77,38.46-44.18l5.98,4.56c-9.4,14.54-45.29,67.83-64.67,67.83-9.97,0-12.82-12.83-12.82-20.8ZM1147.54-666.78c5.7,0,8.83,3.14,8.83,8.83,0,11.69-15.1,27.93-27.06,27.93-5.7,0-8.83-3.42-8.83-9.12,0-11.97,14.81-27.65,27.06-27.65Z"/>
    <path class="cls-4" d="M1126.18-526.56c0-9.69,2.28-19.67,4.56-29.07,6.84-27.08,48.43-136.52,81.76-136.52,6.84,0,9.12,5.7,9.12,11.69,0,27.08-37.03,90.63-54.13,112.86-4.56,5.7-9.4,14.82-9.4,22.23,0,2.85,1.14,5.98,4.56,5.98,10.83,0,40.17-36.2,48.43-47.59l5.13,5.98c-11.68,17.1-58.4,70.97-80.34,70.97-8.55,0-9.69-9.97-9.69-16.53ZM1164.35-575.86c12.54-14.25,42.45-66.12,43.02-84.65-.29-.57-.57-1.14-1.42-1.14-10.54,0-39.31,73.82-41.88,85.79h.29Z"/>
    <path class="cls-4" d="M879.75-470.41c32.76-30.5,139.31-32.49,181.18-32.49,59.82,0,100.56,4.85,153.55,6.56,5.7-10.26,11.68-21.95,15.38-29.07l-.85-1.14c-6.27,3.42-12.54,8.55-24.21,8.55s-15.38-8.27-15.38-17.67c0-21.95,19.09-59.85,31.34-77.81,9.69-3.42,20.51-5.7,30.77-6.55-7.98,13.39-31.91,53.29-31.91,68.4,0,3.99,1.71,8.83,6.55,8.83,4.27,0,6.84-1.71,11.68-3.99,3.7-5.99,11.4-22.52,14.24-29.07l18.8-42.46c10.26-2.85,21.94-6.56,32.76-6.56-13.67,24.8-23.93,51.59-35.61,77.24,14.81-4.84,31.05-6.55,43.3-6.55,16.52,0,32.19,10.83,32.19,28.5,0,3.71-.57,7.41-2,10.83-14.81,39.62-71.22,51.02-120.5,53.58-1.42,2.28-2.85,3.99-4.27,5.7-5.13,6.27-11.96,9.97-20.23,9.97-6.55,0-13.39-2.57-17.66-7.7l-1.99-7.41c-4.84-.28-9.4-.28-13.67-.57-74.64-3.14-177.48-8.27-215.65,17.38-14.53-17.96-45.86-25.37-67.8-26.5ZM1251.24-495.78c21.65,0,79.77-.29,79.77-31.64,0-9.98-9.97-15.96-18.8-15.96-17.66,0-36.46,7.41-53.84,15.96-4.27,8.83-10.26,20.24-16.52,31.64h9.4Z"/>
  </g>
  <g>
    <g>
      <path class="cls-3" d="M137.79,311.3l-55.15,17.14c3.35-14.91,7.08-31.3,14.53-45.09l-3.73,3.73c-22.36-.37-41.74-9.69-41.74-34.66,0-8.94,2.24-17.89,5.22-26.08,23.1-62.6,111.42-144.58,180.73-144.58,34.66,0,66.7,14.91,66.7,54.03,0,19-15.28,48.44-24.59,65.58,16.77-6.33,35.03-10.81,52.54-15.65l-52.91,91.67c-18.26,2.61-35.03,8.57-52.91,12.67-24.22,40.24-44.72,82.35-69.31,122.6-29.44,17.89-63.72,27.2-96.88,36.15,26.46-45.46,52.91-91.29,77.51-137.5ZM176.92,236.02c8.94-16.4,46.21-83.47,46.21-97.26,0-2.61-2.24-2.98-4.1-2.98-14.53,0-25.71,4.1-38.01,11.92-15.28,9.69-45.46,42.48-45.46,61.48,7.45,4.1,14.53,11.18,19.75,17.89l-41.36,40.24c21.24-10.43,41.36-21.61,62.98-31.3Z"/>
      <path class="cls-3" d="M276.04,345.21c0-14.91,17.89-48.07,25.34-61.49l-4.1,2.24-28.69-11.55c5.22-10.81,11.92-21.61,11.92-33.91,0-16.77,3.73-33.91,15.65-46.58,7.83-8.57,19.75-16.4,31.67-16.4,14.91,0,22.73,11.92,21.99,25.71,13.42-3.73,26.46-9.69,39.13-16.02,1.12,10.43,2.98,21.24,2.98,31.67,0,7.08-.75,13.79-1.86,20.5l4.84-5.22,24.59,31.3c-23.48,30.18-76.02,105.08-116.63,105.08-15.28,0-26.83-9.69-26.83-25.34Z"/>
      <path class="cls-3" d="M350.94,325.08c0-37.26,30.18-83.47,49.56-114.4,4.47-1.86,8.94-3.35,13.41-4.84-4.1-4.84-5.96-11.55-5.96-17.89,0-23.85,26.08-51.05,50.31-51.05,15.65,0,26.46,10.81,26.46,26.46,0,11.18-5.59,21.99-12.67,30.56l3.35-.75c-10.06,20.5-20.5,40.62-31.3,60.74l12.3-17.51,30.93,23.85c-16.02,24.59-74.53,106.95-104.71,106.95-20.87,0-31.67-23.85-31.67-42.11Z"/>
      <path class="cls-3" d="M412.79,330.67c0-51.05,54.78-129.3,109.55-129.3,4.47,0,9.32.37,13.79,1.49l1.86-2.61,74.15-7.45c-14.91,23.48-27.95,48.44-39.13,73.78,7.08-10.06,14.16-20.5,21.61-30.18l29.44,26.46c-19.38,28.69-67.45,105.08-104.34,105.08-8.94,0-16.02-5.22-20.5-12.67-13.04,9.69-28.69,16.77-45.46,16.77-26.08,0-40.99-15.28-40.99-41.36ZM492.54,304.96c1.86-10.81,5.22-21.61,8.57-32.05-6.71,10.81-14.16,25.71-16.02,38.38,2.98-1.86,5.22-3.73,7.45-6.33Z"/>
      <path class="cls-3" d="M577.5,345.21c0-14.91,17.89-48.07,25.34-61.49l-4.1,2.24-28.69-11.55c5.22-10.81,11.92-21.61,11.92-33.91,0-16.77,3.73-33.91,15.65-46.58,7.83-8.57,19.75-16.4,31.67-16.4,14.91,0,22.73,11.92,21.99,25.71,13.42-3.73,26.46-9.69,39.13-16.02,1.12,10.43,2.98,21.24,2.98,31.67,0,7.08-.75,13.79-1.86,20.5l4.84-5.22,24.59,31.3c-23.48,30.18-76.02,105.08-116.63,105.08-15.28,0-26.83-9.69-26.83-25.34Z"/>
      <path class="cls-3" d="M836.85,311.3l-55.15,17.14c3.35-14.91,7.08-31.3,14.53-45.09l-3.73,3.73c-22.36-.37-41.74-9.69-41.74-34.66,0-8.94,2.24-17.89,5.22-26.08,23.1-62.6,111.42-144.58,180.73-144.58,34.66,0,66.7,14.91,66.7,54.03,0,19-15.28,48.44-24.59,65.58,16.77-6.33,35.03-10.81,52.54-15.65l-52.91,91.67c-18.26,2.61-35.03,8.57-52.91,12.67-24.22,40.24-44.72,82.35-69.31,122.6-29.44,17.89-63.72,27.2-96.88,36.15,26.46-45.46,52.91-91.29,77.51-137.5ZM875.97,236.02c8.94-16.4,46.21-83.47,46.21-97.26,0-2.61-2.24-2.98-4.1-2.98-14.53,0-25.71,4.1-38.01,11.92-15.28,9.69-45.46,42.48-45.46,61.48,7.45,4.1,14.53,11.18,19.75,17.89l-41.36,40.24c21.24-10.43,41.36-21.61,62.98-31.3Z"/>
      <path class="cls-3" d="M975.1,345.21c0-14.91,17.89-48.07,25.34-61.49l-4.1,2.24-28.69-11.55c5.22-10.81,11.92-21.61,11.92-33.91,0-16.77,3.73-33.91,15.65-46.58,7.83-8.57,19.75-16.4,31.67-16.4,14.91,0,22.73,11.92,21.99,25.71,13.41-3.73,26.46-9.69,39.13-16.02,1.12,10.43,2.98,21.24,2.98,31.67,0,7.08-.75,13.79-1.86,20.5l4.84-5.22,24.59,31.3c-23.48,30.18-76.02,105.08-116.63,105.08-15.28,0-26.83-9.69-26.83-25.34Z"/>
      <path class="cls-3" d="M1052.98,317.63c0-46.95,40.24-104.71,85.33-118.87,7.83-7.45,19-11.55,29.81-11.55,26.83,0,35.77,20.12,35.77,43.6,0,6.33-.75,12.3-1.49,18.63,5.22-4.84,10.06-10.06,14.91-14.91,8.2,10.81,16.02,20.12,25.71,29.07-15.28,19.38-31.67,37.26-58.5,32.79-17.51,31.67-49.19,74.15-89.43,74.15-30.93,0-42.11-26.08-42.11-52.91ZM1145.76,281.86c-5.59-4.1-10.06-9.69-13.04-15.65-4.1,10.81-12.67,28.32-12.67,39.5v7.08c11.55-7.83,19.38-18.63,25.71-30.93Z"/>
      <path class="cls-3" d="M1231.84,338.5c0-5.96,1.12-11.55,2.61-17.14-7.45,10.81-14.16,22.36-20.5,33.91-21.61,9.69-42.85,11.18-66.33,12.3,24.22-56.27,48.82-112.16,73.04-168.06,26.46-5.59,52.54-7.08,79.74-8.2l-8.57,16.77c8.2-5.22,20.5-12.3,30.56-12.3,12.67,0,21.61,8.94,21.61,21.61s-12.3,36.15-18.26,48.07c8.57-11.55,16.77-23.48,25.34-35.03l22.36,35.4c-16.4,23.85-84.59,104.34-113.28,104.34-18.26,0-28.32-14.53-28.32-31.67Z"/>
      <path class="cls-3" d="M1310.09,321.36c0-30.56,27.95-89.43,41.74-118.13-16.02.75-32.05,2.24-48.07,3.73,1.86-15.65,3.73-28.69,14.91-40.62,18.63-4.1,37.26-8.94,56.27-12.3,4.1-8.2,7.83-16.77,11.55-24.97,26.83-4.84,45.83-6.71,73.41-6.71-4.1,8.94-7.83,18.26-12.3,27.2,36.15-1.86,72.29-2.98,108.81-3.35-10.81,23.48-21.61,40.99-40.24,58.88-11.18-.37-22.36-.75-33.54-.75-20.12,0-40.25.37-60.37,0-8.94,20.87-18.26,41.36-27.2,62.23,8.57-11.18,17.14-21.99,26.08-33.16l25.71,32.42c-19.38,25.34-71.55,101.73-103.96,101.73-21.99,0-32.79-27.58-32.79-46.21Z"/>
      <path class="cls-3" d="M1376.79,335.14c0-14.16,2.98-27.95,6.33-41.74,10.06-40.62,74.9-189.67,121.48-189.67,17.89,0,26.83,13.79,26.83,30.18,0,39.5-47.32,120.36-71.17,153.15,14.91-17.14,27.95-36.52,41.36-55.15l26.46,30.93c-18.63,27.57-89.81,108.81-123.71,108.81-19.75,0-27.58-19.75-27.58-36.52Z"/>
      <path class="cls-3" d="M1459.88,325.08c0-37.26,30.18-83.47,49.56-114.4,4.47-1.86,8.94-3.35,13.42-4.84-4.1-4.84-5.96-11.55-5.96-17.89,0-23.85,26.08-51.05,50.31-51.05,15.65,0,26.46,10.81,26.46,26.46,0,11.18-5.59,21.99-12.67,30.56l3.35-.75c-10.06,20.5-20.5,40.62-31.3,60.74l12.3-17.51,30.93,23.85c-16.02,24.59-74.53,106.95-104.71,106.95-20.87,0-31.67-23.85-31.67-42.11Z"/>
      <path class="cls-3" d="M1584.71,338.5c0-5.96,1.12-11.55,2.61-17.14-7.45,10.81-14.16,22.36-20.5,33.91-21.61,9.69-42.85,11.18-66.33,12.3,24.22-56.27,48.82-112.16,73.04-168.06,26.46-5.59,52.54-7.08,79.74-8.2l-8.57,16.77c8.2-5.22,20.5-12.3,30.56-12.3,12.67,0,21.61,8.94,21.61,21.61s-12.3,36.15-18.26,48.07c8.57-11.55,16.77-23.48,25.34-35.03l22.36,35.4c-16.4,23.85-84.59,104.34-113.28,104.34-18.26,0-28.32-14.53-28.32-31.67Z"/>
      <path class="cls-3" d="M968.37,420.1c71.54-54.03,185.57-65.21,273.14-65.21,149.05,0,297.36,11.18,446.42,11.18-16.02-8.94-25.34-26.08-25.34-46.95,0-10.06,1.12-20.12,3.35-29.81,9.69-43.6,60.74-102.85,108.06-102.85,24.22,0,45.09,14.91,45.09,40.62,0,21.99-16.02,47.7-32.05,62.23,10.06-2.98,21.99-3.73,31.67-2.61,26.46,2.61,49.56,18.63,49.56,49.56,0,7.08-1.12,14.16-4.1,20.49-30.56,70.06-119.24,81.23-186.32,85.33-49.19,2.98-98,4.47-147.19,4.47-54.78,0-109.18-1.12-163.96-1.12-65.96,0-222.84,1.86-271.28,45.09-35.77-42.85-70.06-65.58-127.07-70.43ZM1772.15,360.48c14.16-2.24,49.93-6.33,49.93-26.46,0-2.98-5.59-4.1-11.18-4.1-28.32,5.59-46.58,23.48-66.7,33.91,9.32-.75,18.63-1.86,27.95-3.35Z"/>
    </g>
    <g>
      <path class="cls-2" d="M156.42,296.02c-17.14,5.59-34.66,10.43-61.11,18.63,4.47-19,9.32-27.58,16.4-35.77,24.97-11.92,47.7-24.97,71.92-35.77,5.59-10.06,17.14-30.93,27.95-52.17,11.55-23.1,20.87-44.72,20.87-52.17,0-7.83-7.45-11.92-18.26-11.92-13.04,0-26.46,5.59-38.01,13.04-19.75,12.67-49.93,47.7-49.93,69.31,0,6.33,2.98,8.94,11.18,9.32l5.59,7.83-53.29,51.42c-17.51-.37-28.69-8.57-28.69-25.34,0-8.2,2.24-16.02,4.84-22.73,20.87-57.76,105.83-138.62,171.78-138.62,26.46,0,57.39,9.32,57.39,44.72,0,12.67-8.57,32.05-17.51,49.93-5.96,11.92-12.67,23.85-18.26,33.54,13.42-4.84,26.46-10.81,53.29-18.26l-39.13,67.82c-19.75,2.98-35.77,9.69-52.91,13.04-24.59,40.25-44.72,82.73-70.06,124.09-17.89,10.81-38.38,19.38-70.43,27.95,30.56-52.17,54.03-95.02,76.39-137.88Z"/>
      <path class="cls-2" d="M285.36,345.21c0-13.79,22.73-56.27,37.64-78.63-1.86.37-3.73,1.12-5.59,1.49-6.33,1.49-12.3,3.35-20.5,7.45l-15.28-5.96c7.08-14.91,8.2-18.63,8.2-29.07,0-13.04,2.61-29.07,13.04-39.87,4.84-4.84,14.91-13.79,24.97-13.79s12.67,8.2,12.67,14.16c0,4.84-.75,8.57-1.49,11.92-.37.75,0,1.86-.37,2.61,11.92-1.49,27.57-6.33,42.48-13.79,1.12,11.18,1.49,14.16,1.49,17.14,0,8.2-1.12,17.14-3.35,27.2-19.38,16.4-35.4,39.87-36.52,62.98,5.22-3.73,13.04-13.04,20.87-22.73,11.55-13.79,22.73-28.69,30.93-37.64l13.04,16.77c-11.55,14.91-28.32,37.64-46.58,57.39-17.89,19.38-39.5,38.38-58.13,38.38-8.57,0-17.51-4.47-17.51-16.02Z"/>
      <path class="cls-2" d="M360.25,325.08c0-17.14,7.45-36.89,16.77-55.52,9.32-18.63,20.49-36.52,29.81-51.42,8.2-3.35,14.91-5.22,21.61-6.71,6.71-1.49,13.04-2.61,30.56-5.59-10.06,20.12-20.87,38.75-30.56,57.76-9.69,19.38-17.51,36.52-17.51,45.46-.37,0-1.12.37-1.49.75,4.84-.75,13.42-11.92,21.99-23.1,10.06-13.04,20.12-27.58,26.83-36.89l16.4,12.3c-15.65,24.22-65.58,95.77-92.04,95.77-16.4,0-22.36-20.12-22.36-32.79ZM458.25,146.22c10.43,0,17.14,6.71,17.14,17.14,0,18.26-21.99,42.11-40.99,42.11-10.81,0-17.14-7.08-17.14-17.51,0-18.63,21.99-41.73,40.99-41.73Z"/>
      <path class="cls-2" d="M422.11,330.67c0-44.34,49.56-119.99,100.24-119.99,5.96,0,11.92.75,17.51,2.98l3.35-4.47,51.05-5.22c-17.89,28.32-44.34,85.71-44.34,104.71,0,.75-2.24,1.86-1.12,1.86,4.47,0,11.92-11.55,20.5-23.1,9.69-13.42,19.38-27.58,26.83-37.26l15.65,14.16c-8.57,13.04-23.1,34.66-39.5,54.78-15.65,19-35.4,39.5-52.54,39.5-9.69,0-14.91-9.32-17.51-18.26-13.04,11.92-29.81,22.36-48.44,22.36-21.24,0-31.67-11.18-31.67-32.05ZM479.49,322.47c6.71,0,15.65-6.71,21.99-13.42,3.35-21.99,14.53-53.29,25.71-74.15-20.5.75-51.8,58.5-51.8,80.86,0,5.22,1.86,6.71,4.1,6.71Z"/>
      <path class="cls-2" d="M586.81,345.21c0-13.79,22.73-56.27,37.64-78.63-1.86.37-3.73,1.12-5.59,1.49-6.33,1.49-12.3,3.35-20.5,7.45l-15.28-5.96c7.08-14.91,8.2-18.63,8.2-29.07,0-13.04,2.61-29.07,13.04-39.87,4.84-4.84,14.91-13.79,24.97-13.79s12.67,8.2,12.67,14.16c0,4.84-.75,8.57-1.49,11.92-.37.75,0,1.86-.37,2.61,11.92-1.49,27.58-6.33,42.48-13.79,1.12,11.18,1.49,14.16,1.49,17.14,0,8.2-1.12,17.14-3.35,27.2-19.38,16.4-35.4,39.87-36.52,62.98,5.22-3.73,13.04-13.04,20.87-22.73,11.55-13.79,22.73-28.69,30.93-37.64l13.04,16.77c-11.55,14.91-28.32,37.64-46.58,57.39-17.89,19.38-39.5,38.38-58.13,38.38-8.57,0-17.51-4.47-17.51-16.02Z"/>
      <path class="cls-2" d="M855.48,296.02c-17.14,5.59-34.66,10.43-61.11,18.63,4.47-19,9.32-27.58,16.4-35.77,24.97-11.92,47.7-24.97,71.92-35.77,5.59-10.06,17.14-30.93,27.95-52.17,11.55-23.1,20.87-44.72,20.87-52.17,0-7.83-7.45-11.92-18.26-11.92-13.04,0-26.46,5.59-38.01,13.04-19.75,12.67-49.93,47.7-49.93,69.31,0,6.33,2.98,8.94,11.18,9.32l5.59,7.83-53.29,51.42c-17.51-.37-28.69-8.57-28.69-25.34,0-8.2,2.24-16.02,4.84-22.73,20.87-57.76,105.83-138.62,171.78-138.62,26.46,0,57.39,9.32,57.39,44.72,0,12.67-8.57,32.05-17.51,49.93-5.96,11.92-12.67,23.85-18.26,33.54,13.42-4.84,26.46-10.81,53.29-18.26l-39.13,67.82c-19.75,2.98-35.77,9.69-52.91,13.04-24.59,40.25-44.72,82.73-70.06,124.09-17.89,10.81-38.38,19.38-70.43,27.95,30.56-52.17,54.03-95.02,76.39-137.88Z"/>
      <path class="cls-2" d="M984.41,345.21c0-13.79,22.73-56.27,37.64-78.63-1.86.37-3.73,1.12-5.59,1.49-6.33,1.49-12.3,3.35-20.5,7.45l-15.28-5.96c7.08-14.91,8.2-18.63,8.2-29.07,0-13.04,2.61-29.07,13.04-39.87,4.84-4.84,14.91-13.79,24.97-13.79s12.67,8.2,12.67,14.16c0,4.84-.75,8.57-1.49,11.92-.37.75,0,1.86-.37,2.61,11.92-1.49,27.58-6.33,42.48-13.79,1.12,11.18,1.49,14.16,1.49,17.14,0,8.2-1.12,17.14-3.35,27.2-19.38,16.4-35.4,39.87-36.52,62.98,5.22-3.73,13.04-13.04,20.87-22.73,11.55-13.79,22.73-28.69,30.93-37.64l13.04,16.77c-11.55,14.91-28.32,37.64-46.58,57.39-17.89,19.38-39.5,38.38-58.13,38.38-8.57,0-17.51-4.47-17.51-16.02Z"/>
      <path class="cls-2" d="M1062.29,317.63c0-42.85,38.75-98.75,81.23-110.3,6.33-7.08,15.65-10.81,24.59-10.81,23.48,0,26.46,19.75,26.46,34.28,0,9.32-1.49,21.99-4.47,32.05,1.49,1.12,3.35,1.49,4.84,1.49,5.59,0,11.18-4.84,21.24-15.28,5.59,7.45,7.83,9.32,14.16,15.28-11.18,14.16-22.36,23.48-37.64,23.48-4.47,0-8.94-1.12-13.04-2.24-15.28,29.81-44.34,75.64-84.59,75.64-27.2,0-32.79-25.34-32.79-43.6ZM1117.44,323.97c2.24,0,4.84-1.12,8.2-3.35,15.65-10.81,23.85-24.97,32.05-42.11-10.43-4.84-17.89-15.65-20.12-26.83-13.42,14.16-26.83,38.01-26.83,54.03,0,5.59-1.12,18.26,6.71,18.26Z"/>
      <path class="cls-2" d="M1241.15,338.5c0-13.04,5.96-26.46,11.55-38.01,2.61-5.59,5.59-11.18,7.83-16.4,1.12-2.61,1.86-4.84,2.24-6.71-20.87,13.79-42.11,46.21-55.52,70.8-12.3,5.59-24.22,8.2-45.09,9.32,23.48-54.78,43.6-100.98,64.84-149.8,17.51-3.73,33.17-5.96,57.76-6.71-7.08,14.16-13.42,25.71-18.63,36.15,18.26-15.28,41.74-32.05,56.27-32.05,7.45,0,12.3,4.84,12.3,12.3,0,5.59-2.61,12.67-5.96,20.12s-7.83,16.4-12.3,25.71c-7.83,16.4-15.28,32.79-16.77,44.34,12.3-8.94,40.62-47.33,50.68-60.74l11.92,18.63c-16.4,23.85-76.76,95.4-102.1,95.4-14.53,0-19-12.67-19-22.36Z"/>
      <path class="cls-2" d="M1319.41,321.36c0-16.77,9.69-43.6,20.49-68.94,9.32-21.61,19.38-43.6,26.83-58.88h-3.73c-13.79,0-27.58,1.49-48.44,3.35,1.49-12.67,4.47-17.51,8.94-22.36,20.12-4.47,38.75-9.32,57.76-12.3,3.73-7.45,7.45-14.53,11.92-24.59,9.69-1.86,16.02-2.98,22.73-4.1,7.08-1.12,14.16-1.86,29.81-1.86-5.59,12.67-10.06,20.87-13.79,27.95,33.54-1.49,67.45-3.35,109.93-3.73-8.57,18.63-19.38,30.18-29.07,39.5-33.54-1.49-65.21.37-96.51-.75-4.84,11.18-15.65,35.03-25.34,58.13-10.81,26.08-19.75,49.19-20.5,55.15,5.22-1.86,13.04-11.92,21.24-21.99,10.43-12.67,20.87-26.83,29.44-37.64l13.79,17.51c-10.06,13.04-25.34,34.66-42.11,54.03-15.65,18.63-35.03,38.38-49.93,38.38-17.51,0-23.48-23.48-23.48-36.89Z"/>
      <path class="cls-2" d="M1386.11,335.14c0-13.42,2.98-27.2,5.96-39.5,8.94-36.52,67.45-182.59,112.54-182.59,14.16,0,17.51,12.3,17.51,20.87,0,37.64-49.93,122.22-71.92,150.92-5.59,7.45-11.18,17.89-11.18,25.71,0,.75-.75,2.24.37,2.24,13.42,0,48.44-45.83,62.98-65.58l14.16,16.4c-16.77,24.97-79.74,98.75-112.16,98.75-14.53,0-18.26-16.02-18.26-27.2ZM1491.56,166.71c-9.69,9.69-24.59,46.21-34.66,73.78,14.16-24.22,31.3-57.39,34.66-73.78Z"/>
      <path class="cls-2" d="M1469.2,325.08c0-17.14,7.45-36.89,16.77-55.52,9.32-18.63,20.5-36.52,29.81-51.42,8.2-3.35,14.91-5.22,21.61-6.71,6.71-1.49,13.04-2.61,30.56-5.59-10.06,20.12-20.87,38.75-30.56,57.76-9.69,19.38-17.51,36.52-17.51,45.46-.37,0-1.12.37-1.49.75,4.84-.75,13.42-11.92,21.99-23.1,10.06-13.04,20.12-27.58,26.83-36.89l16.4,12.3c-15.65,24.22-65.58,95.77-92.04,95.77-16.4,0-22.36-20.12-22.36-32.79ZM1567.2,146.22c10.43,0,17.14,6.71,17.14,17.14,0,18.26-21.99,42.11-40.99,42.11-10.81,0-17.14-7.08-17.14-17.51,0-18.63,21.99-41.73,40.99-41.73Z"/>
      <path class="cls-2" d="M1594.03,338.5c0-13.04,5.96-26.46,11.55-38.01,2.61-5.59,5.59-11.18,7.83-16.4,1.12-2.61,1.86-4.84,2.24-6.71-20.87,13.79-42.11,46.21-55.52,70.8-12.3,5.59-24.22,8.2-45.09,9.32,23.48-54.78,43.6-100.98,64.84-149.8,17.51-3.73,33.17-5.96,57.76-6.71-7.08,14.16-13.42,25.71-18.63,36.15,18.26-15.28,41.74-32.05,56.27-32.05,7.45,0,12.3,4.84,12.3,12.3,0,5.59-2.61,12.67-5.96,20.12s-7.83,16.4-12.3,25.71c-7.83,16.4-15.28,32.79-16.77,44.34,12.3-8.94,40.62-47.33,50.68-60.74l11.92,18.63c-16.4,23.85-76.76,95.4-102.1,95.4-14.53,0-19-12.67-19-22.36Z"/>
      <path class="cls-2" d="M993.34,413.02c58.88-44.72,191.16-48.82,248.17-48.82,174.02,0,273.51,11.18,447.54,11.18,15.28,0,51.8,0,84.59-5.59,34.28-5.96,57.76-17.51,57.76-35.77,0-8.2-8.2-14.53-22.36-15.28-16.02,1.12-28.69,11.18-43.97,21.24-8.57,5.59-16.77,11.55-24.97,15.65-8.2,4.47-17.14,7.45-26.08,7.45-26.83,0-42.11-19-42.11-43.97,0-9.32,1.12-18.63,2.98-27.95,8.2-37.64,55.52-95.39,99.12-95.39,17.14,0,35.77,9.69,35.77,31.3,0,10.06-3.73,19.38-7.83,27.2-16.4,31.67-43.23,49.93-79,48.82-.75,2.61-1.12,4.84-1.12,7.08,0,8.2,4.84,13.04,13.04,13.04,4.47,0,9.32-1.49,14.53-4.1,5.59-2.61,11.18-6.33,17.14-10.06,10.43-6.33,23.85-14.91,38.75-15.65,29.44,0,53.66,15.65,53.66,42.85,0,5.22-.37,10.81-2.98,16.4-30.56,67.45-117.75,76.39-178.49,80.12-128.19,7.83-182.59,3.35-310.78,3.35-58.13,0-228.43,3.73-270.16,41.36-23.85-28.32-59.25-60.74-103.22-64.47ZM1768.42,234.9c0-1.12.37-2.98-1.12-2.98-12.67,0-27.95,29.44-35.03,46.21,19-4.1,36.15-24.22,36.15-43.23Z"/>
    </g>
    <g>
      <path class="cls-1" d="M167.6,286.33c-21.24,7.08-42.85,13.42-64.47,20.12,1.86-8.57,6.33-16.4,11.92-23.1,24.22-11.55,48.07-24.97,72.66-35.77,10.06-18.26,50.31-90.55,50.31-108.81,0-13.04-12.67-17.51-23.85-17.51-14.53,0-28.69,5.96-40.99,13.79-20.12,12.67-52.54,49.56-52.54,74.15,0,8.57,4.47,14.53,13.79,14.91l1.12,1.49-48.07,46.58c-12.67-.37-20.87-6.33-20.87-19.75,0-7.08,2.24-14.16,4.47-20.87,20.5-56.27,103.97-134.89,166.57-134.89,26.08,0,51.8,8.94,51.8,39.13,0,21.99-30.93,73.41-42.48,93.53,18.26-5.59,35.77-14.16,54.03-19.38l-30.93,53.66c-17.89,2.61-35.03,10.06-52.91,13.04-25.34,40.99-45.83,84.22-70.8,125.21-16.4,10.06-36.15,18.26-54.78,23.1,26.46-45.46,51.8-91.67,76.02-138.62Z"/>
      <path class="cls-1" d="M290.95,345.21c0-15.28,34.28-75.65,45.46-87.2-13.79,3.35-27.2,5.22-39.87,11.55l-7.45-2.98c4.84-10.06,6.33-14.53,6.33-26.08,0-12.3,2.61-26.83,11.55-36.15,4.84-5.22,13.42-11.92,20.87-11.92,5.22,0,7.08,3.73,7.08,8.57,0,9.32-1.86,12.67-4.47,20.49h1.12c13.04,0,33.54-5.22,45.09-11.18.37,2.98.37,5.59.37,8.57,0,7.83-.75,16.4-2.61,24.22-19.38,16.4-37.26,42.48-37.26,68.94,0,1.49-.37,4.47,1.86,4.47,10.43,0,48.07-51.42,55.15-59.25l6.33,8.2c-17.89,22.73-65.96,90.18-97.63,90.18-7.08,0-11.92-2.98-11.92-10.43Z"/>
      <path class="cls-1" d="M365.84,325.08c0-31.67,27.95-76.02,44.72-102.47,12.3-4.84,25.71-7.08,38.38-9.32-10.06,20.12-43.6,74.9-43.6,95.77,0,2.24.37,6.33,3.73,6.33,11.18,0,43.23-48.07,50.31-57.76l7.83,5.96c-12.3,19-59.25,88.69-84.59,88.69-13.04,0-16.77-16.77-16.77-27.2ZM458.25,151.81c7.45,0,11.55,4.1,11.55,11.55,0,15.28-19.75,36.52-35.4,36.52-7.45,0-11.55-4.47-11.55-11.92,0-15.65,19.38-36.15,35.4-36.15Z"/>
      <path class="cls-1" d="M427.7,330.67c0-42.48,48.44-114.4,94.65-114.4,6.71,0,13.42,1.49,19.38,4.47l4.47-6.33,37.26-3.73c-11.55,18.63-39.13,77.51-39.13,98,0,2.61.75,7.45,4.47,7.45,10.06,0,40.62-48.07,48.07-57.76l7.45,6.71c-11.92,17.51-56.64,87.94-84.59,87.94-11.18,0-13.42-16.02-13.79-24.22-13.42,14.16-31.67,28.32-52.17,28.32-17.89,0-26.08-8.57-26.08-26.46ZM479.49,328.06c9.69,0,20.87-9.69,27.2-16.4,2.98-23.48,16.77-59.99,29.07-80.49-2.61-1.12-5.22-1.86-8.2-1.86-25.71,0-57.76,63.72-57.76,86.45,0,5.96,2.61,12.3,9.69,12.3Z"/>
      <path class="cls-1" d="M592.4,345.21c0-15.28,34.28-75.65,45.46-87.2-13.79,3.35-27.2,5.22-39.87,11.55l-7.45-2.98c4.84-10.06,6.33-14.53,6.33-26.08,0-12.3,2.61-26.83,11.55-36.15,4.84-5.22,13.42-11.92,20.87-11.92,5.22,0,7.08,3.73,7.08,8.57,0,9.32-1.86,12.67-4.47,20.49h1.12c13.04,0,33.54-5.22,45.09-11.18.37,2.98.37,5.59.37,8.57,0,7.83-.75,16.4-2.61,24.22-19.38,16.4-37.26,42.48-37.26,68.94,0,1.49-.37,4.47,1.86,4.47,10.43,0,48.07-51.42,55.15-59.25l6.33,8.2c-17.89,22.73-65.96,90.18-97.63,90.18-7.08,0-11.92-2.98-11.92-10.43Z"/>
      <path class="cls-1" d="M866.66,286.33c-21.24,7.08-42.85,13.42-64.47,20.12,1.86-8.57,6.33-16.4,11.92-23.1,24.22-11.55,48.07-24.97,72.66-35.77,10.06-18.26,50.31-90.55,50.31-108.81,0-13.04-12.67-17.51-23.85-17.51-14.53,0-28.69,5.96-40.99,13.79-20.12,12.67-52.54,49.56-52.54,74.15,0,8.57,4.47,14.53,13.79,14.91l1.12,1.49-48.07,46.58c-12.67-.37-20.87-6.33-20.87-19.75,0-7.08,2.24-14.16,4.47-20.87,20.5-56.27,103.97-134.89,166.57-134.89,26.08,0,51.8,8.94,51.8,39.13,0,21.99-30.93,73.41-42.48,93.53,18.26-5.59,35.77-14.16,54.03-19.38l-30.93,53.66c-17.89,2.61-35.03,10.06-52.92,13.04-25.34,40.99-45.83,84.22-70.8,125.21-16.4,10.06-36.15,18.26-54.78,23.1,26.46-45.46,51.8-91.67,76.02-138.62Z"/>
      <path class="cls-1" d="M990,345.21c0-15.28,34.28-75.65,45.46-87.2-13.79,3.35-27.2,5.22-39.87,11.55l-7.45-2.98c4.84-10.06,6.33-14.53,6.33-26.08,0-12.3,2.61-26.83,11.55-36.15,4.84-5.22,13.42-11.92,20.87-11.92,5.22,0,7.08,3.73,7.08,8.57,0,9.32-1.86,12.67-4.47,20.49h1.12c13.04,0,33.54-5.22,45.09-11.18.37,2.98.37,5.59.37,8.57,0,7.83-.75,16.4-2.61,24.22-19.38,16.4-37.26,42.48-37.26,68.94,0,1.49-.37,4.47,1.86,4.47,10.43,0,48.07-51.42,55.15-59.25l6.33,8.2c-17.89,22.73-65.96,90.18-97.63,90.18-7.08,0-11.92-2.98-11.92-10.43Z"/>
      <path class="cls-1" d="M1067.88,317.63c0-41.36,38.01-95.77,78.63-105.46,5.22-6.33,13.41-10.06,21.61-10.06,17.89,0,20.87,14.16,20.87,28.69,0,10.43-1.49,24.22-5.22,33.91,2.98,2.98,7.08,5.22,11.18,5.22,8.2,0,15.65-6.71,20.87-12.3,2.24,2.61,4.47,5.22,7.08,7.45-7.45,9.69-17.51,17.14-30.18,17.14-5.59,0-10.81-1.49-16.02-3.35-14.91,30.56-43.23,76.76-81.61,76.76-21.61,0-27.2-19.75-27.2-38.01ZM1117.44,329.55c4.1,0,7.83-2.24,11.18-4.47,18.63-12.67,27.95-29.81,36.89-49.93-14.91-2.98-25.34-20.12-22.73-34.66l-.75-.37c-16.77,12.3-36.89,43.97-36.89,65.58,0,7.83,1.49,23.85,12.3,23.85Z"/>
      <path class="cls-1" d="M1246.74,338.5c0-23.1,22.36-49.93,22.36-65.96,0-1.49-.37-3.35-2.24-3.35-2.61,0-5.22,2.24-7.08,3.35-22.36,14.53-44.34,48.07-56.64,71.17-10.06,4.47-21.24,7.45-32.42,7.83,19.75-46.58,40.24-92.79,60.37-138.99,14.53-2.98,29.44-5.22,44.34-5.59-8.94,17.14-17.51,34.28-26.83,51.42l1.12.75c14.16-13.79,52.54-48.44,72.66-48.44,4.47,0,6.71,2.24,6.71,6.71,0,16.4-35.4,68.19-35.4,94.65,0,1.12.37,2.98,1.86,2.98,8.94,0,47.32-49.19,54.4-58.5l5.59,8.94c-13.79,20.12-70.8,89.81-95.39,89.81-9.69,0-13.42-8.2-13.42-16.77Z"/>
      <path class="cls-1" d="M1324.99,321.36c0-30.56,36.52-102.85,50.68-133.4h-12.67c-14.16,0-27.95,1.49-42.11,2.61.37-4.1,2.98-7.83,5.59-10.81,19.38-4.1,38.75-9.32,58.5-12.3,4.1-8.2,8.2-16.77,11.92-24.97,13.42-2.61,26.46-5.22,40.24-5.22-4.1,9.69-10.06,18.63-14.53,28.32,36.89-1.86,73.41-3.73,110.3-4.1-4.47,9.69-14.53,20.87-22.36,28.32-32.79-1.49-65.21.75-98-.75-7.45,17.51-47.7,107.32-47.7,119.62,0,2.61.75,5.22,3.73,5.22,11.92,0,43.97-46.21,52.54-56.64l6.71,8.57c-14.53,19-61.86,86.82-84.96,86.82-14.53,0-17.89-20.12-17.89-31.3Z"/>
      <path class="cls-1" d="M1391.69,335.14c0-12.67,2.98-25.71,5.96-38.01,8.94-35.4,63.35-178.49,106.95-178.49,8.94,0,11.92,7.45,11.92,15.28,0,35.4-48.44,118.5-70.8,147.56-5.96,7.45-12.3,19.38-12.3,29.07,0,3.73,1.49,7.83,5.96,7.83,14.16,0,52.54-47.33,63.35-62.23l6.71,7.83c-15.28,22.36-76.39,92.79-105.08,92.79-11.18,0-12.67-13.04-12.67-21.61ZM1441.63,270.68c16.4-18.63,55.52-86.45,56.27-110.67-.37-.75-.75-1.49-1.86-1.49-13.79,0-51.42,96.51-54.78,112.16h.37Z"/>
      <path class="cls-1" d="M1474.79,325.08c0-31.67,27.95-76.02,44.72-102.47,12.3-4.84,25.71-7.08,38.38-9.32-10.06,20.12-43.6,74.9-43.6,95.77,0,2.24.37,6.33,3.73,6.33,11.18,0,43.23-48.07,50.31-57.76l7.83,5.96c-12.3,19-59.25,88.69-84.59,88.69-13.04,0-16.77-16.77-16.77-27.2ZM1567.2,151.81c7.45,0,11.55,4.1,11.55,11.55,0,15.28-19.75,36.52-35.4,36.52-7.45,0-11.55-4.47-11.55-11.92,0-15.65,19.38-36.15,35.4-36.15Z"/>
      <path class="cls-1" d="M1599.62,338.5c0-23.1,22.36-49.93,22.36-65.96,0-1.49-.37-3.35-2.24-3.35-2.61,0-5.22,2.24-7.08,3.35-22.36,14.53-44.34,48.07-56.64,71.17-10.06,4.47-21.24,7.45-32.42,7.83,19.75-46.58,40.24-92.79,60.37-138.99,14.53-2.98,29.44-5.22,44.34-5.59-8.94,17.14-17.51,34.28-26.83,51.42l1.12.75c14.16-13.79,52.54-48.44,72.66-48.44,4.47,0,6.71,2.24,6.71,6.71,0,16.4-35.4,68.19-35.4,94.65,0,1.12.37,2.98,1.86,2.98,8.94,0,47.32-49.19,54.4-58.5l5.59,8.94c-13.79,20.12-70.8,89.81-95.39,89.81-9.69,0-13.42-8.2-13.42-16.77Z"/>
      <path class="cls-1" d="M1008.24,408.55c45.46-34.28,175.51-38.75,233.27-38.75,174.02,0,273.51,11.18,447.54,11.18,31.3,0,147.94.37,147.94-46.95,0-12.67-12.67-20.87-24.22-20.87h-.37c-33.54,0-68.56,44.34-98.38,44.34-23.1,0-36.52-16.02-36.52-38.38,0-8.94,1.12-17.89,2.98-26.83,7.83-36.52,53.66-90.92,93.53-90.92,15.65,0,30.18,8.57,30.18,25.71,0,8.57-2.98,17.14-7.08,24.59-16.02,30.93-42.85,48.07-78.25,45.46-1.49,4.1-2.61,8.57-2.61,13.04,0,11.18,7.45,18.63,18.63,18.63,22.73,0,43.97-29.81,76.39-29.81h.37c21.24,0,41.74,14.53,41.74,37.26,0,4.84-.75,9.69-2.61,14.16-29.07,63.72-112.16,73.04-173.65,76.76-127.81,7.83-182.22,3.35-310.4,3.35-56.64,0-230.29,2.98-269.79,38.75-20.12-23.85-56.64-58.13-88.69-60.74ZM1725.57,284.47c24.59,0,48.44-25.71,48.44-49.56,0-4.47-1.86-8.57-6.71-8.57-16.4,0-39.13,44.72-43.6,58.13h1.86Z"/>
    </g>
  </g>
</svg>