<?xml version="1.0" encoding="UTF-8"?>
<svg id="Layer_1" data-name="Layer 1" xmlns="http://www.w3.org/2000/svg" viewBox="0 0 1920 544.81528662">
  <defs>
    <style>
      .cls-1 {
        fill: #fff4ac;
      }

      .cls-1, .cls-2, .cls-3 {
        stroke-width: 0px;
      }

      .cls-2 {
        fill: #ffc800;
      }

      .cls-3 {
        fill: #674019;
      }
    </style>
  </defs>
  <g>
    <path class="cls-2" d="M137.78955078,311.29525362l-55.14990234,17.140625c3.35351562-14.90527344,7.08007812-31.30078125,14.53271484-45.08886719l-3.72607422,3.7265625c-22.35839844-.37207031-41.73535156-9.68847656-41.73535156-34.65527344,0-8.94335938,2.23583984-17.88623047,5.21679688-26.08447266,23.10351562-62.60253906,111.41796875-144.58203125,180.72802734-144.58203125,34.65527344,0,66.70166016,14.90527344,66.70166016,54.03173828,0,19.00439453-15.27783203,48.44287109-24.59375,65.58398438,16.76855469-6.33496094,35.02734375-10.80664062,52.54150391-15.65087891l-52.9140625,91.66845703c-18.25927734,2.60839844-35.02783203,8.5703125-52.91455078,12.66992188-24.22119141,40.24414062-44.71582031,82.35253906-69.31005859,122.59667969-29.43798828,17.88671875-63.72021484,27.20214844-96.88476562,36.14550781,26.45703125-45.4609375,52.9140625-91.29492188,77.5078125-137.50195312ZM176.91650391,236.0223044c8.94287109-16.39599609,46.20654297-83.47021484,46.20654297-97.2578125,0-2.60839844-2.23583984-2.98095703-4.09912109-2.98095703-14.53271484,0-25.71191406,4.09912109-38.00878906,11.92431641-15.27783203,9.68847656-45.46142578,42.48046875-45.46142578,61.48486328,7.45263672,4.09912109,14.53271484,11.17919922,19.75,17.88623047l-41.36279297,40.24462891c21.24023438-10.43359375,41.36279297-21.61279297,62.97558594-31.30126953Z"/>
    <path class="cls-2" d="M276.03955078,345.20540987c0-14.90625,17.88671875-48.0703125,25.33935547-61.48583984l-4.09912109,2.23583984-28.69287109-11.55175781c5.21679688-10.80615234,11.92431641-21.61279297,11.92431641-33.90966797,0-16.76855469,3.7265625-33.90966797,15.65087891-46.57910156,7.82519531-8.57080078,19.74951172-16.39599609,31.67382812-16.39599609,14.90527344,0,22.73046875,11.92431641,21.98535156,25.71142578,13.41503906-3.72607422,26.45703125-9.68847656,39.12695312-16.02294922,1.11767578,10.43359375,2.98095703,21.24023438,2.98095703,31.67382812,0,7.08007812-.74511719,13.78759766-1.86328125,20.49511719l4.84423828-5.21728516,24.59375,31.30175781c-23.47558594,30.18408203-76.01708984,105.08349609-116.63476562,105.08349609-15.27783203,0-26.82958984-9.68847656-26.82958984-25.33886719Z"/>
    <path class="cls-2" d="M350.93554688,325.08236299c0-37.26367188,30.18359375-83.47021484,49.56054688-114.39892578,4.47167969-1.86328125,8.94287109-3.35400391,13.41455078-4.84423828-4.09863281-4.84423828-5.96191406-11.55175781-5.96191406-17.88671875,0-23.84863281,26.08447266-51.05078125,50.30566406-51.05078125,15.65039062,0,26.45703125,10.80615234,26.45703125,26.45703125,0,11.17871094-5.58935547,21.98535156-12.66943359,30.55615234l3.35351562-.74560547c-10.06103516,20.49511719-20.49511719,40.6171875-31.30126953,60.73974609l12.296875-17.51416016,30.92871094,23.84863281c-16.0234375,24.59423828-74.52685547,106.94726562-104.71044922,106.94726562-20.86767578,0-31.67382812-23.84863281-31.67382812-42.10839844Z"/>
    <path class="cls-2" d="M412.79150391,330.67220674c0-51.05126953,54.77734375-129.3046875,109.5546875-129.3046875,4.47167969,0,9.31591797.37255859,13.78759766,1.49023438l1.86328125-2.60839844,74.15429688-7.45263672c-14.90576172,23.47607422-27.94775391,48.44238281-39.12695312,73.78173828,7.08007812-10.06103516,14.16015625-20.49511719,21.61279297-30.18359375l29.43847656,26.45751953c-19.37744141,28.69287109-67.44726562,105.08349609-104.33789062,105.08349609-8.94335938,0-16.0234375-5.21679688-20.49511719-12.66992188-13.04199219,9.68847656-28.69287109,16.76855469-45.46142578,16.76855469-26.08447266,0-40.98974609-15.27832031-40.98974609-41.36230469ZM492.53515625,304.96029268c1.86328125-10.80664062,5.21728516-21.61328125,8.57080078-32.046875-6.70751953,10.80615234-14.16015625,25.71191406-16.0234375,38.38183594,2.98144531-1.86328125,5.21728516-3.7265625,7.45263672-6.33496094Z"/>
    <path class="cls-2" d="M577.49609375,345.20540987c0-14.90625,17.88671875-48.0703125,25.33935547-61.48583984l-4.09912109,2.23583984-28.69287109-11.55175781c5.21679688-10.80615234,11.92431641-21.61279297,11.92431641-33.90966797,0-16.76855469,3.7265625-33.90966797,15.65087891-46.57910156,7.82519531-8.57080078,19.74951172-16.39599609,31.67382812-16.39599609,14.90527344,0,22.73095703,11.92431641,21.98535156,25.71142578,13.41503906-3.72607422,26.45703125-9.68847656,39.12695312-16.02294922,1.11767578,10.43359375,2.98095703,21.24023438,2.98095703,31.67382812,0,7.08007812-.74511719,13.78759766-1.86328125,20.49511719l4.84423828-5.21728516,24.59375,31.30175781c-23.47558594,30.18408203-76.01708984,105.08349609-116.63427734,105.08349609-15.27832031,0-26.83007812-9.68847656-26.83007812-25.33886719Z"/>
    <path class="cls-2" d="M836.84765625,311.29525362l-55.14990234,17.140625c3.35351562-14.90527344,7.08007812-31.30078125,14.53271484-45.08886719l-3.72607422,3.7265625c-22.35839844-.37207031-41.73535156-9.68847656-41.73535156-34.65527344,0-8.94335938,2.23583984-17.88623047,5.21679688-26.08447266,23.10351562-62.60253906,111.41796875-144.58203125,180.72802734-144.58203125,34.65527344,0,66.70214844,14.90527344,66.70214844,54.03173828,0,19.00439453-15.27832031,48.44287109-24.59472656,65.58398438,16.76855469-6.33496094,35.02832031-10.80664062,52.54199219-15.65087891l-52.9140625,91.66845703c-18.25927734,2.60839844-35.02783203,8.5703125-52.91455078,12.66992188-24.22119141,40.24414062-44.71582031,82.35253906-69.31005859,122.59667969-29.43798828,17.88671875-63.72021484,27.20214844-96.88476562,36.14550781,26.45703125-45.4609375,52.9140625-91.29492188,77.5078125-137.50195312ZM875.97460938,236.0223044c8.94287109-16.39599609,46.20654297-83.47021484,46.20654297-97.2578125,0-2.60839844-2.23583984-2.98095703-4.09912109-2.98095703-14.53271484,0-25.71191406,4.09912109-38.00878906,11.92431641-15.27783203,9.68847656-45.46142578,42.48046875-45.46142578,61.48486328,7.45263672,4.09912109,14.53271484,11.17919922,19.74951172,17.88623047l-41.36230469,40.24462891c21.24023438-10.43359375,41.36230469-21.61279297,62.97558594-31.30126953Z"/>
    <path class="cls-2" d="M975.09765625,345.20540987c0-14.90625,17.88671875-48.0703125,25.33886719-61.48583984l-4.09863281,2.23583984-28.69335938-11.55175781c5.21679688-10.80615234,11.92480469-21.61279297,11.92480469-33.90966797,0-16.76855469,3.7265625-33.90966797,15.65039062-46.57910156,7.82519531-8.57080078,19.75-16.39599609,31.67382812-16.39599609,14.90625,0,22.73144531,11.92431641,21.98632812,25.71142578,13.4140625-3.72607422,26.45703125-9.68847656,39.12597656-16.02294922,1.11816406,10.43359375,2.98144531,21.24023438,2.98144531,31.67382812,0,7.08007812-.74511719,13.78759766-1.86328125,20.49511719l4.84472656-5.21728516,24.59375,31.30175781c-23.4765625,30.18408203-76.01757812,105.08349609-116.63476562,105.08349609-15.27832031,0-26.83007812-9.68847656-26.83007812-25.33886719Z"/>
    <path class="cls-2" d="M1052.97558594,317.63021455c0-46.95263672,40.24414062-104.7109375,85.33300781-118.87109375,7.82519531-7.45263672,19.00390625-11.55175781,29.81054688-11.55175781,26.83007812,0,35.7734375,20.12207031,35.7734375,43.59814453,0,6.33496094-.74511719,12.296875-1.49121094,18.63183594,5.21679688-4.84423828,10.06152344-10.06103516,14.90625-14.90527344,8.19726562,10.80615234,16.02246094,20.12207031,25.7109375,29.06542969-15.27734375,19.37695312-31.67382812,37.26416016-58.50292969,32.79248047-17.51464844,31.67382812-49.18847656,74.15429688-89.43261719,74.15429688-30.92871094,0-42.10742188-26.08496094-42.10742188-52.9140625ZM1145.76171875,281.85628877c-5.58984375-4.09863281-10.06152344-9.68847656-13.04296875-15.65039062-4.09863281,10.80615234-12.66894531,28.32080078-12.66894531,39.49951172v7.08007812c11.55175781-7.82519531,19.37695312-18.63183594,25.71191406-30.92919922Z"/>
    <path class="cls-2" d="M1231.83886719,338.49740205c0-5.96191406,1.1171875-11.55175781,2.60839844-17.140625-7.453125,10.80566406-14.16015625,22.35742188-20.49511719,33.90917969-21.61328125,9.68847656-42.85351562,11.17871094-66.32910156,12.296875,24.22167969-56.26757812,48.81542969-112.16357422,73.03613281-168.05859375,26.45703125-5.58935547,52.54199219-7.08007812,79.74414062-8.19775391l-8.5703125,16.76855469c8.19824219-5.21728516,20.49511719-12.29736328,30.55566406-12.29736328,12.66992188,0,21.61328125,8.94335938,21.61328125,21.61279297,0,13.04248047-12.296875,36.14599609-18.25976562,48.0703125,8.57128906-11.55175781,16.76855469-23.47607422,25.33984375-35.02783203l22.35742188,35.40039062c-16.39550781,23.84863281-84.58789062,104.33789062-113.28027344,104.33789062-18.25976562,0-28.3203125-14.53222656-28.3203125-31.67382812Z"/>
    <path class="cls-2" d="M1310.08886719,321.35677705c0-30.55664062,27.94824219-89.43310547,41.73535156-118.12646484-16.0234375.74560547-32.046875,2.23583984-48.0703125,3.7265625,1.86328125-15.65039062,3.7265625-28.69287109,14.90527344-40.6171875,18.63183594-4.09912109,37.26367188-8.94335938,56.26855469-12.296875,4.09863281-8.19824219,7.82519531-16.76855469,11.55175781-24.96679688,26.82910156-4.84423828,45.83398438-6.70703125,73.40917969-6.70703125-4.09960938,8.94287109-7.82617188,18.25878906-12.29785156,27.20214844,36.14648438-1.86328125,72.29199219-2.98095703,108.80957031-3.35351562-10.80566406,23.47558594-21.61230469,40.98974609-40.24414062,58.87597656-11.1796875-.37255859-22.35839844-.74511719-33.53710938-.74511719-20.12207031,0-40.24511719.37255859-60.3671875,0-8.94335938,20.86767578-18.25878906,41.36230469-27.20214844,62.22998047,8.5703125-11.17919922,17.14160156-21.98535156,26.08398438-33.16455078l25.71191406,32.41943359c-19.37695312,25.33886719-71.54589844,101.72949219-103.96484375,101.72949219-21.98535156,0-32.79199219-27.57519531-32.79199219-46.20605469Z"/>
    <path class="cls-2" d="M1376.7890625,335.14388643c0-14.16015625,2.98144531-27.94726562,6.33496094-41.73535156,10.06054688-40.61767578,74.89941406-189.67138672,121.47851562-189.67138672,17.88671875,0,26.83007812,13.78759766,26.83007812,30.18310547,0,39.49951172-47.32421875,120.36132812-71.17285156,153.15332031,14.90527344-17.14160156,27.94726562-36.51855469,41.36230469-55.14990234l26.45703125,30.92871094c-18.63183594,27.57470703-89.80566406,108.81005859-123.71484375,108.81005859-19.75,0-27.57519531-19.75-27.57519531-36.51855469Z"/>
    <path class="cls-2" d="M1459.8828125,325.08236299c0-37.26367188,30.18359375-83.47021484,49.56054688-114.39892578,4.47167969-1.86328125,8.94335938-3.35400391,13.41503906-4.84423828-4.09960938-4.84423828-5.96289062-11.55175781-5.96289062-17.88671875,0-23.84863281,26.08496094-51.05078125,50.30566406-51.05078125,15.65136719,0,26.45703125,10.80615234,26.45703125,26.45703125,0,11.17871094-5.58886719,21.98535156-12.66894531,30.55615234l3.35351562-.74560547c-10.06152344,20.49511719-20.49511719,40.6171875-31.30175781,60.73974609l12.29785156-17.51416016,30.92871094,23.84863281c-16.0234375,24.59423828-74.52734375,106.94726562-104.7109375,106.94726562-20.8671875,0-31.67382812-23.84863281-31.67382812-42.10839844Z"/>
    <path class="cls-2" d="M1584.71484375,338.49740205c0-5.96191406,1.1171875-11.55175781,2.60839844-17.140625-7.453125,10.80566406-14.16015625,22.35742188-20.49511719,33.90917969-21.61328125,9.68847656-42.85351562,11.17871094-66.32910156,12.296875,24.22167969-56.26757812,48.81542969-112.16357422,73.03613281-168.05859375,26.45703125-5.58935547,52.54199219-7.08007812,79.74414062-8.19775391l-8.5703125,16.76855469c8.19726562-5.21728516,20.49511719-12.29736328,30.55566406-12.29736328,12.66992188,0,21.61328125,8.94335938,21.61328125,21.61279297,0,13.04248047-12.296875,36.14599609-18.25976562,48.0703125,8.57128906-11.55175781,16.76855469-23.47607422,25.33984375-35.02783203l22.35742188,35.40039062c-16.39550781,23.84863281-84.58789062,104.33789062-113.28027344,104.33789062-18.25976562,0-28.3203125-14.53222656-28.3203125-31.67382812Z"/>
    <path class="cls-2" d="M968.37304688,420.10482393c71.54492188-54.03222656,185.57128906-65.2109375,273.140625-65.2109375,149.0546875,0,297.36328125,11.17871094,446.41699219,11.17871094-16.0234375-8.94335938-25.33886719-26.08496094-25.33886719-46.95214844,0-10.06152344,1.1171875-20.12207031,3.35351562-29.81054688,9.68847656-43.59912109,60.73925781-102.84814453,108.06347656-102.84814453,24.22167969,0,45.08886719,14.90576172,45.08886719,40.6171875,0,21.98583984-16.02246094,47.69726562-32.04589844,62.23095703,10.06054688-2.98144531,21.98535156-3.7265625,31.67382812-2.60839844,26.45703125,2.60839844,49.56054688,18.63183594,49.56054688,49.56054688,0,7.08007812-1.11816406,14.16015625-4.09960938,20.49414062-30.55566406,70.05566406-119.24316406,81.234375-186.31738281,85.33398438-49.1875,2.98046875-98.00292969,4.47167969-147.19042969,4.47167969-54.77734375,0-109.18261719-1.11816406-163.95898438-1.11816406-65.95703125,0-222.8359375,1.86328125-271.27832031,45.08886719-35.7734375-42.85253906-70.05566406-65.58398438-127.06835938-70.42773438ZM1772.14648438,360.48275362c14.16015625-2.23535156,49.93261719-6.33496094,49.93261719-26.45703125,0-2.98046875-5.58984375-4.09863281-11.17871094-4.09863281-28.3203125,5.58886719-46.58007812,23.47558594-66.70214844,33.90917969,9.31640625-.74511719,18.63183594-1.86230469,27.94824219-3.35351562Z"/>
  </g>
  <g>
    <path class="cls-1" d="M156.42138672,296.0169333c-17.14111328,5.58984375-34.65527344,10.43359375-61.11230469,18.63183594,4.47167969-19.00390625,9.31591797-27.57519531,16.39599609-35.7734375,24.96679688-11.92431641,47.69726562-24.96630859,71.91845703-35.77294922,5.58984375-10.06103516,17.14160156-30.92871094,27.94775391-52.16894531,11.55175781-23.10302734,20.86767578-44.71582031,20.86767578-52.16894531,0-7.82519531-7.45263672-11.92382812-18.25927734-11.92382812-13.04199219,0-26.45703125,5.58935547-38.00878906,13.04199219-19.74951172,12.66943359-49.93310547,47.69726562-49.93310547,69.31005859,0,6.33496094,2.98144531,8.94335938,11.17919922,9.31591797l5.58935547,7.82519531-53.28662109,51.42382812c-17.51367188-.37255859-28.69287109-8.57080078-28.69287109-25.33935547,0-8.19775391,2.23583984-16.0234375,4.84423828-22.73046875,20.86767578-57.75878906,105.828125-138.62060547,171.78466797-138.62060547,26.45703125,0,57.38574219,9.31591797,57.38574219,44.71630859,0,12.66992188-8.57080078,32.046875-17.51367188,49.93310547-5.96240234,11.92431641-12.66992188,23.84863281-18.25927734,33.53710938,13.41503906-4.84423828,26.45703125-10.80615234,53.28662109-18.25878906l-39.12646484,67.81933594c-19.74951172,2.98095703-35.77294922,9.68847656-52.9140625,13.04199219-24.59375,40.24560547-44.71630859,82.72607422-70.05566406,124.08837891-17.88623047,10.80664062-38.38134766,19.37695312-70.42773438,27.94726562,30.55615234-52.16894531,54.03222656-95.02148438,76.39013672-137.875Z"/>
    <path class="cls-1" d="M285.35546875,345.20540987c0-13.78808594,22.73095703-56.26855469,37.63623047-78.62695312-1.86328125.37255859-3.7265625,1.11816406-5.58935547,1.49072266-6.33496094,1.49023438-12.29736328,3.35351562-20.49511719,7.45263672l-15.27783203-5.96240234c7.08007812-14.90527344,8.19775391-18.63183594,8.19775391-29.06542969,0-13.04199219,2.60839844-29.06542969,13.04199219-39.87207031,4.84472656-4.84423828,14.90576172-13.78710938,24.96679688-13.78710938,9.68847656,0,12.66943359,8.19775391,12.66943359,14.16015625,0,4.84423828-.74511719,8.5703125-1.49023438,11.92431641-.37255859.74511719,0,1.86279297-.37255859,2.60839844,11.92382812-1.49072266,27.57470703-6.33496094,42.47998047-13.78759766,1.11816406,11.17919922,1.49072266,14.16015625,1.49072266,17.14111328,0,8.19775391-1.11816406,17.14111328-3.35351562,27.20214844-19.37744141,16.39599609-35.40039062,39.87207031-36.51855469,62.97558594,5.21679688-3.72558594,13.04248047-13.04199219,20.86767578-22.73046875,11.55175781-13.78759766,22.73095703-28.69335938,30.92871094-37.63623047l13.04199219,16.76855469c-11.55126953,14.90527344-28.31982422,37.63623047-46.57910156,57.38623047-17.88671875,19.37695312-39.49951172,38.38085938-58.13134766,38.38085938-8.5703125,0-17.51367188-4.47167969-17.51367188-16.02246094Z"/>
    <path class="cls-1" d="M360.25146484,325.08236299c0-17.140625,7.45263672-36.890625,16.76855469-55.52294922,9.31591797-18.63183594,20.49462891-36.51806641,29.81054688-51.42333984,8.19824219-3.35400391,14.90576172-5.21679688,21.61279297-6.70751953,6.70751953-1.49072266,13.04248047-2.60839844,30.55615234-5.58935547-10.06103516,20.12207031-20.86767578,38.75390625-30.55615234,57.75830078-9.68847656,19.37695312-17.51367188,36.51904297-17.51367188,45.46142578-.37255859,0-1.11767578.37304688-1.49072266.74609375,4.84423828-.74609375,13.41503906-11.92480469,21.98583984-23.10351562,10.06103516-13.04296875,20.12207031-27.57568359,26.82958984-36.89160156l16.39599609,12.296875c-15.65087891,24.22167969-65.58398438,95.76757812-92.04101562,95.76757812-16.39599609,0-22.35791016-20.12207031-22.35791016-32.79199219ZM458.25439453,146.2176169c10.43359375,0,17.14111328,6.70703125,17.14111328,17.14111328,0,18.25878906-21.98535156,42.10742188-40.98974609,42.10742188-10.80664062,0-17.14111328-7.08007812-17.14111328-17.51367188,0-18.63183594,21.98535156-41.73486328,40.98974609-41.73486328Z"/>
    <path class="cls-1" d="M422.10742188,330.67220674c0-44.34375,49.56054688-119.98876953,100.23876953-119.98876953,5.96191406,0,11.92431641.74511719,17.51367188,2.98095703l3.35400391-4.47167969,51.05078125-5.21679688c-17.88623047,28.3203125-44.34375,85.70605469-44.34375,104.7109375,0,.74511719-2.23535156,1.86328125-1.11767578,1.86328125,4.47167969,0,11.92431641-11.55175781,20.49511719-23.10351562,9.68847656-13.41552734,19.37695312-27.57568359,26.82958984-37.26416016l15.65039062,14.16015625c-8.5703125,13.04248047-23.10302734,34.65576172-39.49902344,54.77783203-15.65087891,19.00488281-35.40039062,39.49902344-52.54150391,39.49902344-9.68847656,0-14.90527344-9.31542969-17.51416016-18.25878906-13.04199219,11.92480469-29.81054688,22.35839844-48.44238281,22.35839844-21.24023438,0-31.67382812-11.1796875-31.67382812-32.046875ZM479.49316406,322.47396455c6.70751953,0,15.65087891-6.70703125,21.98535156-13.41503906,3.35400391-21.98535156,14.53271484-53.28662109,25.71191406-74.15429688-20.49511719.74511719-51.79638672,58.50390625-51.79638672,80.86230469,0,5.21679688,1.86328125,6.70703125,4.09912109,6.70703125Z"/>
    <path class="cls-1" d="M586.81201172,345.20540987c0-13.78808594,22.73095703-56.26855469,37.63623047-78.62695312-1.86328125.37255859-3.7265625,1.11816406-5.58935547,1.49072266-6.33496094,1.49023438-12.29736328,3.35351562-20.49511719,7.45263672l-15.27783203-5.96240234c7.08007812-14.90527344,8.19775391-18.63183594,8.19775391-29.06542969,0-13.04199219,2.60839844-29.06542969,13.04248047-39.87207031,4.84423828-4.84423828,14.90527344-13.78710938,24.96630859-13.78710938,9.68847656,0,12.66943359,8.19775391,12.66943359,14.16015625,0,4.84423828-.74511719,8.5703125-1.49023438,11.92431641-.37304688.74511719,0,1.86279297-.37304688,2.60839844,11.92480469-1.49072266,27.57519531-6.33496094,42.48046875-13.78759766,1.11816406,11.17919922,1.49072266,14.16015625,1.49072266,17.14111328,0,8.19775391-1.11816406,17.14111328-3.35351562,27.20214844-19.37744141,16.39599609-35.40039062,39.87207031-36.51855469,62.97558594,5.21679688-3.72558594,13.04248047-13.04199219,20.86767578-22.73046875,11.55175781-13.78759766,22.73046875-28.69335938,30.92871094-37.63623047l13.04199219,16.76855469c-11.55126953,14.90527344-28.31982422,37.63623047-46.57910156,57.38623047-17.88671875,19.37695312-39.49951172,38.38085938-58.13085938,38.38085938-8.57080078,0-17.51416016-4.47167969-17.51416016-16.02246094Z"/>
    <path class="cls-1" d="M855.47949219,296.0169333c-17.14111328,5.58984375-34.65527344,10.43359375-61.11230469,18.63183594,4.47167969-19.00390625,9.31591797-27.57519531,16.39599609-35.7734375,24.96679688-11.92431641,47.69726562-24.96630859,71.91845703-35.77294922,5.58984375-10.06103516,17.14160156-30.92871094,27.94775391-52.16894531,11.55175781-23.10302734,20.86767578-44.71582031,20.86767578-52.16894531,0-7.82519531-7.45263672-11.92382812-18.25927734-11.92382812-13.04199219,0-26.45703125,5.58935547-38.00878906,13.04199219-19.74951172,12.66943359-49.93310547,47.69726562-49.93310547,69.31005859,0,6.33496094,2.98144531,8.94335938,11.17919922,9.31591797l5.58935547,7.82519531-53.28662109,51.42382812c-17.51367188-.37255859-28.69287109-8.57080078-28.69287109-25.33935547,0-8.19775391,2.23583984-16.0234375,4.84423828-22.73046875,20.86767578-57.75878906,105.828125-138.62060547,171.78466797-138.62060547,26.45703125,0,57.38574219,9.31591797,57.38574219,44.71630859,0,12.66992188-8.5703125,32.046875-17.51367188,49.93310547-5.96289062,11.92431641-12.66992188,23.84863281-18.25927734,33.53710938,13.41552734-4.84423828,26.45751953-10.80615234,53.28662109-18.25878906l-39.12695312,67.81933594c-19.74902344,2.98095703-35.77246094,9.68847656-52.91357422,13.04199219-24.59375,40.24560547-44.71630859,82.72607422-70.05566406,124.08837891-17.88623047,10.80664062-38.38134766,19.37695312-70.42773438,27.94726562,30.55615234-52.16894531,54.03222656-95.02148438,76.39013672-137.875Z"/>
    <path class="cls-1" d="M984.4140625,345.20540987c0-13.78808594,22.73046875-56.26855469,37.63574219-78.62695312-1.86328125.37255859-3.7265625,1.11816406-5.58984375,1.49072266-6.33496094,1.49023438-12.296875,3.35351562-20.49511719,7.45263672l-15.27734375-5.96240234c7.08007812-14.90527344,8.19824219-18.63183594,8.19824219-29.06542969,0-13.04199219,2.60839844-29.06542969,13.04199219-39.87207031,4.84375-4.84423828,14.90527344-13.78710938,24.96582031-13.78710938,9.68945312,0,12.66992188,8.19775391,12.66992188,14.16015625,0,4.84423828-.74511719,8.5703125-1.49023438,11.92431641-.37304688.74511719,0,1.86279297-.37304688,2.60839844,11.92480469-1.49072266,27.57519531-6.33496094,42.48046875-13.78759766,1.11816406,11.17919922,1.49023438,14.16015625,1.49023438,17.14111328,0,8.19775391-1.1171875,17.14111328-3.35351562,27.20214844-19.37695312,16.39599609-35.40039062,39.87207031-36.51757812,62.97558594,5.21679688-3.72558594,13.04199219-13.04199219,20.8671875-22.73046875,11.55175781-13.78759766,22.73046875-28.69335938,30.92871094-37.63623047l13.04199219,16.76855469c-11.55175781,14.90527344-28.3203125,37.63623047-46.57910156,57.38623047-17.88671875,19.37695312-39.49902344,38.38085938-58.13085938,38.38085938-8.57128906,0-17.51367188-4.47167969-17.51367188-16.02246094Z"/>
    <path class="cls-1" d="M1062.29101562,317.63021455c0-42.85400391,38.75390625-98.74902344,81.234375-110.30078125,6.33496094-7.08007812,15.65039062-10.80615234,24.59375-10.80615234,23.4765625,0,26.45703125,19.74951172,26.45703125,34.28222656,0,9.31591797-1.49023438,21.98535156-4.47167969,32.046875,1.49121094,1.11767578,3.35449219,1.49023438,4.84472656,1.49023438,5.58984375,0,11.17871094-4.84423828,21.24023438-15.27783203,5.58886719,7.45263672,7.82519531,9.31591797,14.16015625,15.27783203-11.1796875,14.16015625-22.35839844,23.47607422-37.63671875,23.47607422-4.47167969,0-8.94335938-1.1171875-13.04199219-2.23535156-15.27832031,29.81054688-44.34375,75.64453125-84.58789062,75.64453125-27.20214844,0-32.79199219-25.33886719-32.79199219-43.59765625ZM1117.44140625,323.96517549c2.23535156,0,4.84375-1.11816406,8.19726562-3.35449219,15.65136719-10.80566406,23.84863281-24.96582031,32.046875-42.10791016-10.43359375-4.84423828-17.88671875-15.65039062-20.12207031-26.82958984-13.41503906,14.16015625-26.83007812,38.00878906-26.83007812,54.03222656,0,5.58984375-1.11816406,18.25976562,6.70800781,18.25976562Z"/>
    <path class="cls-1" d="M1241.15429688,338.49740205c0-13.04199219,5.96191406-26.45703125,11.55175781-38.00878906,2.60839844-5.58984375,5.58984375-11.17871094,7.82519531-16.39648438,1.11816406-2.60839844,1.86328125-4.84423828,2.23632812-6.70703125-20.86816406,13.78710938-42.10839844,46.20703125-55.52246094,70.80078125-12.29785156,5.58984375-24.22167969,8.19824219-45.08886719,9.31640625,23.47558594-54.77734375,43.59765625-100.98486328,64.83789062-149.80029297,17.51367188-3.72607422,33.16503906-5.96191406,57.75878906-6.70703125-7.08007812,14.16015625-13.41503906,25.71142578-18.63183594,36.14550781,18.25878906-15.27832031,41.73535156-32.046875,56.26757812-32.046875,7.453125,0,12.296875,4.84423828,12.296875,12.296875,0,5.58984375-2.60839844,12.66992188-5.96191406,20.12255859s-7.82519531,16.39599609-12.296875,25.71191406c-7.82519531,16.39599609-15.27832031,32.79199219-16.76855469,44.34375,12.296875-8.94335938,40.6171875-47.32519531,50.67871094-60.73974609l11.92382812,18.63183594c-16.39550781,23.84912109-76.76269531,95.39501953-102.1015625,95.39501953-14.53320312,0-19.00488281-12.66992188-19.00488281-22.35839844Z"/>
    <path class="cls-1" d="M1319.40527344,321.35677705c0-16.76855469,9.68847656-43.59912109,20.49414062-68.93847656,9.31640625-21.61279297,19.37695312-43.59814453,26.83007812-58.87646484h-3.7265625c-13.78710938,0-27.57519531,1.49072266-48.44238281,3.35400391,1.49023438-12.66943359,4.47167969-17.51416016,8.94335938-22.35839844,20.12207031-4.47119141,38.75390625-9.31542969,57.75878906-12.296875,3.72558594-7.45263672,7.45214844-14.53271484,11.92382812-24.59375,9.68847656-1.86328125,16.0234375-2.98095703,22.73046875-4.09912109,7.08007812-1.11767578,14.16015625-1.86328125,29.81152344-1.86328125-5.58984375,12.66992188-10.06152344,20.86767578-13.78808594,27.94775391,33.53710938-1.49023438,67.44726562-3.35351562,109.92773438-3.72607422-8.57128906,18.63134766-19.37695312,30.18310547-29.06542969,39.49902344-33.53710938-1.49023438-65.21191406.37255859-96.51269531-.74511719-4.84472656,11.17919922-15.65039062,35.02783203-25.33886719,58.13085938-10.80664062,26.08447266-19.75,49.18798828-20.49511719,55.15087891,5.21679688-1.86328125,13.04199219-11.92480469,21.24023438-21.98632812,10.43359375-12.66943359,20.8671875-26.82958984,29.4375-37.63623047l13.78808594,17.51416016c-10.06152344,13.04199219-25.33984375,34.65527344-42.10839844,54.03222656-15.65039062,18.63183594-35.02734375,38.38183594-49.93261719,38.38183594-17.51367188,0-23.47558594-23.4765625-23.47558594-36.890625Z"/>
    <path class="cls-1" d="M1386.10546875,335.14388643c0-13.41503906,2.98046875-27.20214844,5.96191406-39.49902344,8.94335938-36.51904297,67.44628906-182.59179688,112.53515625-182.59179688,14.16015625,0,17.51464844,12.296875,17.51464844,20.8671875,0,37.63623047-49.93359375,122.22460938-71.91894531,150.91748047-5.58984375,7.45263672-11.17871094,17.88720703-11.17871094,25.71240234,0,.74511719-.74609375,2.23535156.37207031,2.23535156,13.41503906,0,48.44238281-45.83447266,62.97558594-65.58398438l14.16015625,16.39599609c-16.76855469,24.96630859-79.74414062,98.74853516-112.16308594,98.74853516-14.53320312,0-18.25878906-16.0234375-18.25878906-27.20214844ZM1491.56054688,166.7122458c-9.68847656,9.68847656-24.59375,46.20703125-34.65527344,73.78173828,14.16015625-24.22119141,31.30175781-57.38574219,34.65527344-73.78173828Z"/>
    <path class="cls-1" d="M1469.19824219,325.08236299c0-17.140625,7.453125-36.890625,16.76855469-55.52294922,9.31640625-18.63183594,20.49511719-36.51806641,29.81152344-51.42333984,8.19726562-3.35400391,14.90527344-5.21679688,21.61230469-6.70751953,6.70800781-1.49072266,13.04199219-2.60839844,30.55664062-5.58935547-10.06152344,20.12207031-20.86816406,38.75390625-30.55664062,57.75830078-9.68847656,19.37695312-17.51367188,36.51904297-17.51367188,45.46142578-.37304688,0-1.11816406.37304688-1.49023438.74609375,4.84375-.74609375,13.41503906-11.92480469,21.98535156-23.10351562,10.06054688-13.04296875,20.12207031-27.57568359,26.82910156-36.89160156l16.39648438,12.296875c-15.65039062,24.22167969-65.58398438,95.76757812-92.04101562,95.76757812-16.39550781,0-22.35839844-20.12207031-22.35839844-32.79199219ZM1567.20117188,146.2176169c10.43457031,0,17.14160156,6.70703125,17.14160156,17.14111328,0,18.25878906-21.98535156,42.10742188-40.99023438,42.10742188-10.80566406,0-17.140625-7.08007812-17.140625-17.51367188,0-18.63183594,21.98535156-41.73486328,40.98925781-41.73486328Z"/>
    <path class="cls-1" d="M1594.03027344,338.49740205c0-13.04199219,5.96191406-26.45703125,11.55175781-38.00878906,2.60839844-5.58984375,5.58984375-11.17871094,7.82519531-16.39648438,1.11816406-2.60839844,1.86328125-4.84423828,2.23632812-6.70703125-20.86816406,13.78710938-42.10839844,46.20703125-55.52246094,70.80078125-12.29785156,5.58984375-24.22167969,8.19824219-45.08886719,9.31640625,23.47558594-54.77734375,43.59765625-100.98486328,64.83789062-149.80029297,17.51367188-3.72607422,33.16503906-5.96191406,57.75878906-6.70703125-7.08007812,14.16015625-13.41503906,25.71142578-18.63183594,36.14550781,18.25878906-15.27832031,41.73535156-32.046875,56.26757812-32.046875,7.453125,0,12.296875,4.84423828,12.296875,12.296875,0,5.58984375-2.60839844,12.66992188-5.96191406,20.12255859s-7.82519531,16.39599609-12.296875,25.71191406c-7.82519531,16.39599609-15.27832031,32.79199219-16.76855469,44.34375,12.296875-8.94335938,40.6171875-47.32519531,50.67871094-60.73974609l11.92382812,18.63183594c-16.39550781,23.84912109-76.76269531,95.39501953-102.1015625,95.39501953-14.53320312,0-19.00488281-12.66992188-19.00488281-22.35839844Z"/>
    <path class="cls-1" d="M993.33886719,413.0247458c58.87695312-44.71679688,191.16210938-48.81542969,248.17480469-48.81542969,174.02050781,0,273.51464844,11.17871094,447.53515625,11.17871094,15.27734375,0,51.79589844,0,84.58789062-5.58886719,34.28222656-5.96289062,57.7578125-17.51367188,57.7578125-35.7734375,0-8.19824219-8.19726562-14.53222656-22.35742188-15.27832031-16.0234375,1.11816406-28.69335938,11.1796875-43.97070312,21.24023438-8.57128906,5.58984375-16.76855469,11.55175781-24.96679688,15.65136719-8.19824219,4.47167969-17.14160156,7.45214844-26.08496094,7.45214844-26.82910156,0-42.10742188-19.00390625-42.10742188-43.97070312,0-9.31542969,1.11816406-18.63183594,2.98144531-27.94824219,8.19726562-37.63574219,55.52246094-95.39453125,99.12011719-95.39453125,17.14160156,0,35.7734375,9.68847656,35.7734375,31.30126953,0,10.06152344-3.7265625,19.37744141-7.82519531,27.20263672-16.39648438,31.67382812-43.22558594,49.93359375-78.99902344,48.81542969-.74511719,2.60839844-1.11816406,4.84472656-1.11816406,7.08007812,0,8.19824219,4.84472656,13.04199219,13.04296875,13.04199219,4.47167969,0,9.31542969-1.49023438,14.53222656-4.09863281,5.58984375-2.60839844,11.1796875-6.33496094,17.14160156-10.06152344,10.43359375-6.33398438,23.84863281-14.90527344,38.75390625-15.65039062,29.43847656,0,53.65917969,15.65039062,53.65917969,42.85351562,0,5.21679688-.37207031,10.80566406-2.98046875,16.39550781-30.55664062,67.44726562-117.75292969,76.390625-178.4921875,80.11621094-128.18652344,7.82617188-182.59179688,3.35449219-310.77734375,3.35449219-58.13183594,0-228.42578125,3.72558594-270.16113281,41.36230469-23.84863281-28.3203125-59.24804688-60.73925781-103.21972656-64.46582031ZM1768.41992188,234.90462862c0-1.11816406.37207031-2.98095703-1.11816406-2.98095703-12.66992188,0-27.94726562,29.43798828-35.02734375,46.20654297,19.00390625-4.09912109,36.14550781-24.22119141,36.14550781-43.22558594Z"/>
  </g>
  <g>
    <path class="cls-3" d="M167.60058594,286.32845674c-21.24023438,7.08007812-42.85302734,13.41503906-64.46582031,20.12207031,1.86279297-8.5703125,6.33447266-16.39550781,11.92431641-23.10351562,24.22119141-11.55175781,48.06982422-24.96630859,72.66357422-35.77294922,10.06103516-18.25927734,50.30566406-90.55029297,50.30566406-108.80957031,0-13.04199219-12.66943359-17.51367188-23.84863281-17.51367188-14.53271484,0-28.69287109,5.96240234-40.98974609,13.78759766-20.12207031,12.66943359-52.54150391,49.56054688-52.54150391,74.15429688,0,8.57080078,4.47167969,14.53271484,13.78759766,14.90527344l1.11767578,1.49072266-48.06982422,46.57910156c-12.66943359-.37255859-20.86767578-6.33447266-20.86767578-19.74951172,0-7.08007812,2.23583984-14.16015625,4.47167969-20.86767578,20.49511719-56.26757812,103.96533203-134.89355469,166.56787109-134.89355469,26.08447266,0,51.79638672,8.94335938,51.79638672,39.12646484,0,21.98535156-30.92871094,73.40917969-42.48046875,93.53125,18.25927734-5.58935547,35.77294922-14.15966797,54.03222656-19.37695312l-30.92871094,53.65966797c-17.88671875,2.60839844-35.02783203,10.06103516-52.91455078,13.04199219-25.33886719,40.99072266-45.83398438,84.21630859-70.80029297,125.20556641-16.39599609,10.06152344-36.14550781,18.25976562-54.77734375,23.10351562,26.45703125-45.4609375,51.79589844-91.66796875,76.01757812-138.62011719Z"/>
    <path class="cls-3" d="M290.9453125,345.20540987c0-15.27832031,34.28222656-75.64599609,45.46142578-87.19775391-13.78759766,3.35400391-27.20263672,5.21728516-39.87207031,11.55175781l-7.45263672-2.98095703c4.84423828-10.06103516,6.33447266-14.53271484,6.33447266-26.08447266,0-12.296875,2.60839844-26.82958984,11.55175781-36.14550781,4.84423828-5.21679688,13.41503906-11.92431641,20.86767578-11.92431641,5.21679688,0,7.08007812,3.7265625,7.08007812,8.57080078,0,9.31542969-1.86328125,12.66943359-4.47167969,20.49462891h1.11816406c13.04199219,0,33.53710938-5.21679688,45.08837891-11.17919922.37304688,2.98144531.37304688,5.58984375.37304688,8.57080078,0,7.82519531-.74560547,16.39599609-2.60888672,24.22119141-19.37695312,16.39599609-37.26318359,42.48095703-37.26318359,68.93798828,0,1.49023438-.37255859,4.47167969,1.86328125,4.47167969,10.43359375,0,48.06982422-51.42431641,55.14990234-59.24951172l6.33447266,8.19824219c-17.88623047,22.73095703-65.95605469,90.17822266-97.63037109,90.17822266-7.07958984,0-11.92382812-2.98144531-11.92382812-10.43359375Z"/>
    <path class="cls-3" d="M365.84082031,325.08236299c0-31.67382812,27.94775391-76.01757812,44.71630859-102.47460938,12.296875-4.84423828,25.71191406-7.08007812,38.38134766-9.31591797-10.06103516,20.12207031-43.59814453,74.89990234-43.59814453,95.76708984,0,2.23632812.37255859,6.33496094,3.72607422,6.33496094,11.17919922,0,43.22558594-48.0703125,50.30566406-57.75878906l7.82568359,5.96240234c-12.29736328,19.00439453-59.24902344,88.68798828-84.58837891,88.68798828-13.04199219,0-16.76855469-16.76953125-16.76855469-27.203125ZM458.25439453,151.80697237c7.45263672,0,11.55175781,4.09912109,11.55175781,11.55175781,0,15.27783203-19.75,36.51806641-35.40039062,36.51806641-7.45263672,0-11.55175781-4.47167969-11.55175781-11.92431641,0-15.65039062,19.37695312-36.14550781,35.40039062-36.14550781Z"/>
    <path class="cls-3" d="M427.69677734,330.67220674c0-42.48046875,48.44287109-114.39941406,94.64941406-114.39941406,6.70751953,0,13.41503906,1.49072266,19.37695312,4.47167969l4.47167969-6.33496094,37.26367188-3.72607422c-11.55175781,18.63134766-39.12695312,77.50830078-39.12695312,98.00341797,0,2.60839844.74511719,7.45214844,4.47167969,7.45214844,10.06103516,0,40.6171875-48.06982422,48.06982422-57.75830078l7.45263672,6.70703125c-11.92431641,17.51416016-56.64013672,87.94287109-84.58789062,87.94287109-11.17919922,0-13.41503906-16.0234375-13.78759766-24.22167969-13.41503906,14.16015625-31.67382812,28.3203125-52.16894531,28.3203125-17.88623047,0-26.08447266-8.5703125-26.08447266-26.45703125ZM479.49316406,328.0638083c9.68847656,0,20.86767578-9.68847656,27.20214844-16.39648438,2.98144531-23.47558594,16.76855469-59.99414062,29.06591797-80.48925781-2.60888672-1.11767578-5.21728516-1.86328125-8.19824219-1.86328125-25.71191406,0-57.75830078,63.72070312-57.75830078,86.45214844,0,5.96191406,2.60839844,12.296875,9.68847656,12.296875Z"/>
    <path class="cls-3" d="M592.40136719,345.20540987c0-15.27832031,34.28271484-75.64599609,45.46191406-87.19775391-13.78759766,3.35400391-27.20263672,5.21728516-39.87207031,11.55175781l-7.45263672-2.98095703c4.84423828-10.06103516,6.33447266-14.53271484,6.33447266-26.08447266,0-12.296875,2.60839844-26.82958984,11.55175781-36.14550781,4.84423828-5.21679688,13.41503906-11.92431641,20.86767578-11.92431641,5.21679688,0,7.08007812,3.7265625,7.08007812,8.57080078,0,9.31542969-1.86328125,12.66943359-4.47167969,20.49462891h1.11816406c13.04199219,0,33.53710938-5.21679688,45.08837891-11.17919922.37304688,2.98144531.37304688,5.58984375.37304688,8.57080078,0,7.82519531-.74560547,16.39599609-2.60839844,24.22119141-19.37744141,16.39599609-37.26367188,42.48095703-37.26367188,68.93798828,0,1.49023438-.37255859,4.47167969,1.86328125,4.47167969,10.43359375,0,48.06982422-51.42431641,55.14990234-59.24951172l6.33447266,8.19824219c-17.88623047,22.73095703-65.95605469,90.17822266-97.62988281,90.17822266-7.08007812,0-11.92480469-2.98144531-11.92480469-10.43359375Z"/>
    <path class="cls-3" d="M866.65869141,286.32845674c-21.24023438,7.08007812-42.85302734,13.41503906-64.46582031,20.12207031,1.86279297-8.5703125,6.33447266-16.39550781,11.92431641-23.10351562,24.22119141-11.55175781,48.06982422-24.96630859,72.66357422-35.77294922,10.06103516-18.25927734,50.30566406-90.55029297,50.30566406-108.80957031,0-13.04199219-12.66943359-17.51367188-23.84863281-17.51367188-14.53271484,0-28.69287109,5.96240234-40.98974609,13.78759766-20.12207031,12.66943359-52.54150391,49.56054688-52.54150391,74.15429688,0,8.57080078,4.47167969,14.53271484,13.78759766,14.90527344l1.11767578,1.49072266-48.06982422,46.57910156c-12.66943359-.37255859-20.86767578-6.33447266-20.86767578-19.74951172,0-7.08007812,2.23583984-14.16015625,4.47167969-20.86767578,20.49511719-56.26757812,103.96533203-134.89355469,166.56787109-134.89355469,26.08496094,0,51.79589844,8.94335938,51.79589844,39.12646484,0,21.98535156-30.92822266,73.40917969-42.47998047,93.53125,18.25927734-5.58935547,35.77294922-14.15966797,54.03173828-19.37695312l-30.92871094,53.65966797c-17.88623047,2.60839844-35.02734375,10.06103516-52.9140625,13.04199219-25.33886719,40.99072266-45.83398438,84.21630859-70.80029297,125.20556641-16.39599609,10.06152344-36.14550781,18.25976562-54.77734375,23.10351562,26.45703125-45.4609375,51.79638672-91.66796875,76.01757812-138.62011719Z"/>
    <path class="cls-3" d="M990.00292969,345.20540987c0-15.27832031,34.28222656-75.64599609,45.46191406-87.19775391-13.78808594,3.35400391-27.20214844,5.21728516-39.87207031,11.55175781l-7.453125-2.98095703c4.84472656-10.06103516,6.33496094-14.53271484,6.33496094-26.08447266,0-12.296875,2.60839844-26.82958984,11.55175781-36.14550781,4.84472656-5.21679688,13.41503906-11.92431641,20.8671875-11.92431641,5.21777344,0,7.08007812,3.7265625,7.08007812,8.57080078,0,9.31542969-1.86230469,12.66943359-4.47070312,20.49462891h1.1171875c13.04199219,0,33.53710938-5.21679688,45.08886719-11.17919922.37304688,2.98144531.37304688,5.58984375.37304688,8.57080078,0,7.82519531-.74511719,16.39599609-2.60839844,24.22119141-19.37695312,16.39599609-37.26367188,42.48095703-37.26367188,68.93798828,0,1.49023438-.37304688,4.47167969,1.86328125,4.47167969,10.43359375,0,48.06933594-51.42431641,55.14941406-59.24951172l6.33496094,8.19824219c-17.88671875,22.73095703-65.95605469,90.17822266-97.62988281,90.17822266-7.08007812,0-11.92480469-2.98144531-11.92480469-10.43359375Z"/>
    <path class="cls-3" d="M1067.88085938,317.63021455c0-41.36328125,38.00878906-95.76806641,78.62597656-105.45654297,5.21679688-6.33447266,13.4140625-10.06103516,21.61230469-10.06103516,17.88671875,0,20.86816406,14.16015625,20.86816406,28.69287109,0,10.43359375-1.49121094,24.22119141-5.21777344,33.90966797,2.98144531,2.98144531,7.08007812,5.21679688,11.1796875,5.21679688,8.19824219,0,15.65039062-6.70703125,20.8671875-12.296875,2.23632812,2.60839844,4.47167969,5.21728516,7.08007812,7.45263672-7.45214844,9.68847656-17.51367188,17.14160156-30.18359375,17.14160156-5.58886719,0-10.80566406-1.49072266-16.0234375-3.35400391-14.90527344,30.55664062-43.22558594,76.76367188-81.60644531,76.76367188-21.61328125,0-27.20214844-19.75-27.20214844-38.00878906ZM1117.44140625,329.55404268c4.09863281,0,7.82519531-2.23535156,11.17871094-4.47167969,18.63183594-12.66894531,27.94726562-29.81054688,36.890625-49.93310547-14.90527344-2.98144531-25.33886719-20.12255859-22.73046875-34.65527344l-.74511719-.37255859c-16.76855469,12.296875-36.890625,43.97070312-36.890625,65.58398438,0,7.82519531,1.49023438,23.84863281,12.296875,23.84863281Z"/>
    <path class="cls-3" d="M1246.74414062,338.49740205c0-23.10351562,22.35839844-49.93359375,22.35839844-65.95654297,0-1.49072266-.37304688-3.35400391-2.23632812-3.35400391-2.60839844,0-5.21679688,2.23583984-7.08007812,3.35400391-22.35839844,14.53271484-44.34375,48.06982422-56.640625,71.17333984-10.06054688,4.47167969-21.24023438,7.453125-32.41894531,7.82519531,19.75-46.57910156,40.24414062-92.78613281,60.3671875-138.99316406,14.53222656-2.98095703,29.4375-5.21679688,44.34277344-5.58935547-8.94335938,17.14111328-17.51367188,34.28222656-26.82910156,51.42382812l1.1171875.74511719c14.16015625-13.78759766,52.54199219-48.44238281,72.6640625-48.44238281,4.47167969,0,6.70800781,2.23583984,6.70800781,6.70703125,0,16.39599609-35.40039062,68.19287109-35.40039062,94.64990234,0,1.11816406.37207031,2.98144531,1.86328125,2.98144531,8.94238281,0,47.32421875-49.18847656,54.40429688-58.50439453l5.58984375,8.94335938c-13.78808594,20.12255859-70.80078125,89.80517578-95.39453125,89.80517578-9.68847656,0-13.41503906-8.19824219-13.41503906-16.76855469Z"/>
    <path class="cls-3" d="M1324.99414062,321.35677705c0-30.55664062,36.51855469-102.84814453,50.67871094-133.40429688h-12.66992188c-14.16015625,0-27.94726562,1.49072266-42.10742188,2.60839844.37207031-4.09912109,2.98144531-7.82519531,5.58984375-10.80615234,19.37695312-4.09912109,38.75390625-9.31591797,58.50292969-12.296875,4.09960938-8.19824219,8.19824219-16.76904297,11.92480469-24.96679688,13.41503906-2.60839844,26.45703125-5.21679688,40.24414062-5.21679688-4.09863281,9.68847656-10.06054688,18.63183594-14.53222656,28.3203125,36.890625-1.86328125,73.40917969-3.7265625,110.29980469-4.09912109-4.47167969,9.68847656-14.53320312,20.86767578-22.35839844,28.3203125-32.79199219-1.49072266-65.2109375.74511719-98.00292969-.74511719-7.45214844,17.51367188-47.69726562,107.31933594-47.69726562,119.61621094,0,2.60839844.74511719,5.21679688,3.7265625,5.21679688,11.92382812,0,43.97070312-46.20703125,52.54101562-56.64111328l6.70800781,8.57080078c-14.53320312,19.00439453-61.85742188,86.82421875-84.9609375,86.82421875-14.53320312,0-17.88671875-20.12207031-17.88671875-31.30078125Z"/>
    <path class="cls-3" d="M1391.69433594,335.14388643c0-12.66992188,2.98144531-25.71191406,5.96191406-38.00878906,8.94335938-35.40087891,63.34863281-178.49267578,106.94628906-178.49267578,8.94335938,0,11.92480469,7.45263672,11.92480469,15.27783203,0,35.40039062-48.44238281,118.49804688-70.80078125,147.56347656-5.96191406,7.453125-12.296875,19.37792969-12.296875,29.06640625,0,3.7265625,1.49023438,7.82519531,5.96191406,7.82519531,14.16015625,0,52.54199219-47.32519531,63.34765625-62.23046875l6.70800781,7.82519531c-15.27832031,22.35839844-76.390625,92.78613281-105.08300781,92.78613281-11.1796875,0-12.66992188-13.04199219-12.66992188-21.61230469ZM1441.62792969,270.67757783c16.39550781-18.63183594,55.52246094-86.45117188,56.26757812-110.67285156-.37304688-.74511719-.74511719-1.49023438-1.86328125-1.49023438-13.78710938,0-51.42382812,96.51220703-54.77734375,112.16308594h.37304688Z"/>
    <path class="cls-3" d="M1474.78808594,325.08236299c0-31.67382812,27.94726562-76.01757812,44.71582031-102.47460938,12.29785156-4.84423828,25.71191406-7.08007812,38.38183594-9.31591797-10.06152344,20.12207031-43.59863281,74.89990234-43.59863281,95.76708984,0,2.23632812.37304688,6.33496094,3.7265625,6.33496094,11.17871094,0,43.22558594-48.0703125,50.30566406-57.75878906l7.82519531,5.96240234c-12.296875,19.00439453-59.24902344,88.68798828-84.58789062,88.68798828-13.04199219,0-16.76855469-16.76953125-16.76855469-27.203125ZM1567.20117188,151.80697237c7.453125,0,11.55175781,4.09912109,11.55175781,11.55175781,0,15.27783203-19.74902344,36.51806641-35.40039062,36.51806641-7.45214844,0-11.55078125-4.47167969-11.55078125-11.92431641,0-15.65039062,19.37695312-36.14550781,35.39941406-36.14550781Z"/>
    <path class="cls-3" d="M1599.62011719,338.49740205c0-23.10351562,22.35839844-49.93359375,22.35839844-65.95654297,0-1.49072266-.37304688-3.35400391-2.23632812-3.35400391-2.60839844,0-5.21679688,2.23583984-7.08007812,3.35400391-22.35839844,14.53271484-44.34375,48.06982422-56.640625,71.17333984-10.06054688,4.47167969-21.24023438,7.453125-32.41894531,7.82519531,19.75-46.57910156,40.24414062-92.78613281,60.3671875-138.99316406,14.53222656-2.98095703,29.4375-5.21679688,44.34277344-5.58935547-8.94335938,17.14111328-17.51367188,34.28222656-26.82910156,51.42382812l1.1171875.74511719c14.16015625-13.78759766,52.54199219-48.44238281,72.6640625-48.44238281,4.47167969,0,6.70800781,2.23583984,6.70800781,6.70703125,0,16.39599609-35.40039062,68.19287109-35.40039062,94.64990234,0,1.11816406.37207031,2.98144531,1.86328125,2.98144531,8.94238281,0,47.32421875-49.18847656,54.40429688-58.50439453l5.58984375,8.94335938c-13.78808594,20.12255859-70.80078125,89.80517578-95.39453125,89.80517578-9.68847656,0-13.41503906-8.19824219-13.41503906-16.76855469Z"/>
    <path class="cls-3" d="M1008.24414062,408.55306612c45.46191406-34.28222656,175.51171875-38.75390625,233.26953125-38.75390625,174.02050781,0,273.51464844,11.17871094,447.53515625,11.17871094,31.30078125,0,147.93554688.37304688,147.93554688-46.95214844,0-12.66894531-12.66992188-20.8671875-24.22070312-20.8671875h-.37304688c-33.53710938,0-68.56445312,44.34375-98.37597656,44.34375-23.10253906,0-36.51757812-16.0234375-36.51757812-38.38183594,0-8.94335938,1.1171875-17.88671875,2.98046875-26.83007812,7.82519531-36.51806641,53.66015625-90.92285156,93.53125-90.92285156,15.65136719,0,30.18359375,8.5703125,30.18359375,25.71142578,0,8.57080078-2.98046875,17.14160156-7.08007812,24.59423828-16.0234375,30.92871094-42.85253906,48.0703125-78.25292969,45.46191406-1.49023438,4.09863281-2.60839844,8.5703125-2.60839844,13.04199219,0,11.1796875,7.45214844,18.63183594,18.63183594,18.63183594,22.73046875,0,43.97070312-29.81054688,76.38964844-29.81054688h.37304688c21.24023438,0,41.73535156,14.53222656,41.73535156,37.26367188,0,4.84375-.74609375,9.68847656-2.60839844,14.16015625-29.06640625,63.71972656-112.16308594,73.03613281-173.6484375,76.76269531-127.81347656,7.82519531-182.21875,3.35351562-310.40429688,3.35351562-56.640625,0-230.2890625,2.98144531-269.78808594,38.75390625-20.12207031-23.84863281-56.640625-58.13085938-88.6875-60.73925781ZM1725.56640625,284.46517549c24.59375,0,48.44238281-25.71191406,48.44238281-49.56054688,0-4.47167969-1.86230469-8.57080078-6.70703125-8.57080078-16.39550781,0-39.12695312,44.71630859-43.59863281,58.13134766h1.86328125Z"/>
  </g>
</svg>